<svg width="14" height="15" viewBox="0 0 14 15" fill="none" xmlns="http://www.w3.org/2000/svg">
<mask id="mask0_760_800" style="mask-type:alpha" maskUnits="userSpaceOnUse" x="0" y="0" width="14" height="15">
<rect y="0.90625" width="14" height="14" fill="#D9D9D9"/>
</mask>
<g mask="url(#mask0_760_800)">
<path d="M3.79168 10.2396C4.24862 10.2396 4.69341 10.2906 5.12605 10.3927C5.55869 10.4948 5.9889 10.6479 6.41668 10.8521V5.10623C6.01807 4.8729 5.59515 4.6979 5.14793 4.58123C4.7007 4.46456 4.24862 4.40623 3.79168 4.40623C3.44168 4.40623 3.09411 4.44026 2.74897 4.50831C2.40383 4.57637 2.07084 4.67845 1.75001 4.81456V10.5896C2.09029 10.4729 2.42814 10.3854 2.76355 10.3271C3.09897 10.2687 3.44168 10.2396 3.79168 10.2396ZM7.58334 10.8521C8.01112 10.6479 8.44133 10.4948 8.87397 10.3927C9.30661 10.2906 9.7514 10.2396 10.2083 10.2396C10.5583 10.2396 10.9011 10.2687 11.2365 10.3271C11.5719 10.3854 11.9097 10.4729 12.25 10.5896V4.81456C11.9292 4.67845 11.5962 4.57637 11.2511 4.50831C10.9059 4.44026 10.5583 4.40623 10.2083 4.40623C9.7514 4.40623 9.29932 4.46456 8.85209 4.58123C8.40487 4.6979 7.98195 4.8729 7.58334 5.10623V10.8521ZM7.00001 12.5729C6.53334 12.2035 6.02779 11.9166 5.48334 11.7125C4.9389 11.5083 4.37501 11.4062 3.79168 11.4062C3.38334 11.4062 2.9823 11.4597 2.58855 11.5666C2.1948 11.6736 1.81807 11.8243 1.45834 12.0187C1.25418 12.1257 1.0573 12.1208 0.867719 12.0041C0.678135 11.8875 0.583344 11.7173 0.583344 11.4937V4.46456C0.583344 4.35762 0.61008 4.25554 0.663552 4.15831C0.717024 4.06109 0.797232 3.98817 0.904177 3.93956C1.3514 3.70623 1.81807 3.53123 2.30418 3.41456C2.79029 3.2979 3.28612 3.23956 3.79168 3.23956C4.35557 3.23956 4.9073 3.31248 5.44689 3.45831C5.98647 3.60415 6.50418 3.8229 7.00001 4.11456C7.49584 3.8229 8.01355 3.60415 8.55313 3.45831C9.09272 3.31248 9.64445 3.23956 10.2083 3.23956C10.7139 3.23956 11.2097 3.2979 11.6958 3.41456C12.182 3.53123 12.6486 3.70623 13.0958 3.93956C13.2028 3.98817 13.283 4.06109 13.3365 4.15831C13.3899 4.25554 13.4167 4.35762 13.4167 4.46456V11.4937C13.4167 11.7173 13.3219 11.8875 13.1323 12.0041C12.9427 12.1208 12.7458 12.1257 12.5417 12.0187C12.182 11.8243 11.8052 11.6736 11.4115 11.5666C11.0177 11.4597 10.6167 11.4062 10.2083 11.4062C9.62501 11.4062 9.06112 11.5083 8.51668 11.7125C7.97223 11.9166 7.46668 12.2035 7.00001 12.5729Z" fill="white"/>
</g>
</svg>
