<svg width="14" height="15" viewBox="0 0 14 15" fill="none" xmlns="http://www.w3.org/2000/svg">
<mask id="mask0_760_762" style="mask-type:alpha" maskUnits="userSpaceOnUse" x="0" y="0" width="14" height="15">
<rect y="0.40625" width="14" height="14" fill="#D9D9D9"/>
</mask>
<g mask="url(#mask0_760_762)">
<path d="M3.79165 9.73956C4.24859 9.73956 4.69338 9.7906 5.12602 9.89269C5.55866 9.99477 5.98887 10.1479 6.41665 10.3521V4.60623C6.01803 4.3729 5.59512 4.1979 5.1479 4.08123C4.70067 3.96456 4.24859 3.90623 3.79165 3.90623C3.44165 3.90623 3.09408 3.94026 2.74894 4.00831C2.4038 4.07637 2.07081 4.17845 1.74998 4.31456V10.0896C2.09026 9.9729 2.4281 9.8854 2.76352 9.82706C3.09894 9.76873 3.44165 9.73956 3.79165 9.73956ZM7.58331 10.3521C8.01109 10.1479 8.4413 9.99477 8.87394 9.89269C9.30658 9.7906 9.75137 9.73956 10.2083 9.73956C10.5583 9.73956 10.901 9.76873 11.2364 9.82706C11.5719 9.8854 11.9097 9.9729 12.25 10.0896V4.31456C11.9291 4.17845 11.5962 4.07637 11.251 4.00831C10.9059 3.94026 10.5583 3.90623 10.2083 3.90623C9.75137 3.90623 9.29928 3.96456 8.85206 4.08123C8.40484 4.1979 7.98192 4.3729 7.58331 4.60623V10.3521ZM6.99998 12.0729C6.53331 11.7035 6.02776 11.4166 5.48331 11.2125C4.93887 11.0083 4.37498 10.9062 3.79165 10.9062C3.38331 10.9062 2.98227 10.9597 2.58852 11.0666C2.19477 11.1736 1.81804 11.3243 1.45831 11.5187C1.25415 11.6257 1.05727 11.6208 0.867688 11.5041C0.678105 11.3875 0.583313 11.2173 0.583313 10.9937V3.96456C0.583313 3.85762 0.610049 3.75554 0.663521 3.65831C0.716994 3.56109 0.797202 3.48817 0.904146 3.43956C1.35137 3.20623 1.81804 3.03123 2.30415 2.91456C2.79026 2.7979 3.28609 2.73956 3.79165 2.73956C4.35554 2.73956 4.90727 2.81248 5.44685 2.95831C5.98644 3.10415 6.50415 3.3229 6.99998 3.61456C7.49581 3.3229 8.01352 3.10415 8.5531 2.95831C9.09269 2.81248 9.64442 2.73956 10.2083 2.73956C10.7139 2.73956 11.2097 2.7979 11.6958 2.91456C12.1819 3.03123 12.6486 3.20623 13.0958 3.43956C13.2028 3.48817 13.283 3.56109 13.3364 3.65831C13.3899 3.75554 13.4166 3.85762 13.4166 3.96456V10.9937C13.4166 11.2173 13.3219 11.3875 13.1323 11.5041C12.9427 11.6208 12.7458 11.6257 12.5416 11.5187C12.1819 11.3243 11.8052 11.1736 11.4114 11.0666C11.0177 10.9597 10.6166 10.9062 10.2083 10.9062C9.62498 10.9062 9.06109 11.0083 8.51665 11.2125C7.9722 11.4166 7.46665 11.7035 6.99998 12.0729Z" fill="#22314E"/>
</g>
</svg>
