<svg width="32" height="32" viewBox="0 0 32 32" fill="none" xmlns="http://www.w3.org/2000/svg">
<mask id="mask0_576_530" style="mask-type:alpha" maskUnits="userSpaceOnUse" x="0" y="0" width="32" height="32">
<rect width="32" height="32" fill="#D9D9D9"/>
</mask>
<g mask="url(#mask0_576_530)">
<path d="M2.66663 29.3334V5.33341C2.66663 4.60008 2.92774 3.9723 3.44996 3.45008C3.97218 2.92786 4.59996 2.66675 5.33329 2.66675H26.6666C27.4 2.66675 28.0277 2.92786 28.55 3.45008C29.0722 3.9723 29.3333 4.60008 29.3333 5.33341V21.3334C29.3333 22.0667 29.0722 22.6945 28.55 23.2167C28.0277 23.739 27.4 24.0001 26.6666 24.0001H7.99996L2.66663 29.3334ZM6.86663 21.3334H26.6666V5.33341H5.33329V22.8334L6.86663 21.3334Z" fill="#22314E"/>
</g>
</svg>
