<svg width="20" height="21" viewBox="0 0 20 21" fill="none" xmlns="http://www.w3.org/2000/svg">
<path fill-rule="evenodd" clip-rule="evenodd" d="M4.14896 5.37855C3.63868 6.22859 3.10297 7.63673 2.6838 9.27138C2.25624 10.9387 1.9686 12.7686 1.94227 14.3561C2.358 14.8541 3.44839 15.7906 5.23632 16.2473L6.45461 14.7247C5.85218 14.4946 5.34147 14.2042 5.0095 13.8723C4.73055 13.5933 4.73055 13.141 5.0095 12.8621C5.28845 12.5832 5.74071 12.5832 6.01965 12.8621C6.25243 13.0949 6.88129 13.4297 7.83286 13.6531C9.12885 13.9545 10.4767 13.9544 11.7727 13.6529C11.7791 13.6514 11.7854 13.65 11.7918 13.6487C12.7322 13.4256 13.3542 13.0936 13.5876 12.8611C13.8671 12.5827 14.3193 12.5836 14.5978 12.8631C14.8762 13.1425 14.8753 13.5948 14.5958 13.8732C14.2632 14.2046 13.7531 14.4948 13.1508 14.7249L14.3698 16.2474C16.1586 15.7906 17.2488 14.8545 17.664 14.3564C17.6377 12.7689 17.3501 10.9389 16.9223 9.27164C16.5029 7.6368 15.9668 6.22896 15.456 5.37979C15.4557 5.3797 15.4554 5.3796 15.455 5.3795C15.2967 5.33187 15.0202 5.26144 14.5858 5.18883C13.7157 5.04342 12.2252 4.89146 9.80315 4.89146C7.38029 4.89146 5.88939 5.04307 5.01899 5.18817C4.5844 5.26061 4.30782 5.33089 4.14938 5.37843C4.14924 5.37847 4.1491 5.37851 4.14896 5.37855ZM15.9289 4.79146L16.2489 4.15288C16.3597 4.20844 16.4542 4.29189 16.523 4.39503C17.2027 5.41369 17.8396 7.09834 18.3061 8.91664C18.7764 10.7497 19.0946 12.8016 19.0946 14.5915C19.0946 14.7322 19.053 14.8698 18.975 14.987C18.459 15.763 16.8635 17.217 14.2318 17.7433C13.9701 17.7957 13.701 17.6977 13.5341 17.4893L11.6513 15.1377C10.4293 15.3646 9.17588 15.3645 7.95388 15.1375L6.07231 17.4891C5.90549 17.6976 5.63632 17.7957 5.37449 17.7433C2.74238 17.2169 1.14738 15.7612 0.631683 14.9877C0.55346 14.8703 0.511719 14.7325 0.511719 14.5915C0.511719 12.8016 0.82992 10.7497 1.3 8.91654C1.76631 7.09804 2.40282 5.4133 3.08147 4.39414C3.15044 4.29057 3.24527 4.20681 3.35657 4.15116L3.676 4.79003C3.35657 4.15116 3.35707 4.15091 3.35758 4.15065L3.35861 4.15014L3.36077 4.14907L3.36541 4.14681C3.36864 4.14524 3.37217 4.14355 3.376 4.14176C3.38365 4.13816 3.39251 4.13411 3.40264 4.12964C3.4229 4.1207 3.44829 4.11007 3.47934 4.09799C3.5414 4.07385 3.62642 4.04385 3.73884 4.01012C3.96339 3.94275 4.29958 3.85981 4.78409 3.77904C5.75191 3.61771 7.32458 3.46289 9.80315 3.46289C12.2811 3.46289 13.8535 3.61807 14.8212 3.7798C15.3057 3.86077 15.6419 3.94391 15.8665 4.01146C15.979 4.04528 16.064 4.07536 16.1261 4.09956C16.1571 4.11168 16.1825 4.12234 16.2028 4.13131C16.2129 4.13579 16.2218 4.13985 16.2295 4.14346C16.2333 4.14526 16.2368 4.14695 16.24 4.14852L16.2447 4.15079L16.2468 4.15186L16.2479 4.15238C16.2484 4.15263 16.2489 4.15288 15.9289 4.79146ZM5.57871 8.7756C5.84662 8.50769 6.20998 8.35718 6.58886 8.35718C6.96774 8.35718 7.33111 8.50769 7.59901 8.7756C7.86692 9.0435 8.01743 9.40687 8.01743 9.78575C8.01743 10.1646 7.86692 10.528 7.59901 10.7959C7.33111 11.0638 6.96774 11.2143 6.58886 11.2143C6.20998 11.2143 5.84662 11.0638 5.57871 10.7959C5.3108 10.528 5.16029 10.1646 5.16029 9.78575C5.16029 9.40687 5.3108 9.0435 5.57871 8.7756ZM12.0073 8.7756C12.2752 8.50769 12.6386 8.35718 13.0174 8.35718C13.3963 8.35718 13.7597 8.50769 14.0276 8.7756C14.2955 9.0435 14.446 9.40687 14.446 9.78575C14.446 10.1646 14.2955 10.528 14.0276 10.7959C13.7597 11.0638 13.3963 11.2143 13.0174 11.2143C12.6386 11.2143 12.2752 11.0638 12.0073 10.7959C11.7394 10.528 11.5889 10.1646 11.5889 9.78575C11.5889 9.40687 11.7394 9.04351 12.0073 8.7756Z" fill="#22314E"/>
</svg>
