<svg width="34" height="28" viewBox="0 0 34 28" fill="none" xmlns="http://www.w3.org/2000/svg">
<g clip-path="url(#clip0_576_541)">
<path d="M33.4466 11.2181C32.6131 10.6472 30.4228 10.4034 28.8303 10.8398C28.7445 9.22604 27.9267 7.86615 26.4305 6.67961L25.8766 6.30133L25.5075 6.86853C24.7819 7.98919 24.4762 9.48219 24.5845 10.8393C24.6699 11.6755 24.9559 12.6155 25.5075 13.2975C23.4349 14.5206 21.5247 14.243 13.0644 14.243H0.00232213C-0.0358922 16.1865 0.271171 19.9254 2.60809 22.969C2.86615 23.3052 3.14939 23.6305 3.45645 23.9438C5.35638 25.8796 8.22695 27.2989 12.5196 27.303C19.0681 27.309 24.6789 23.7078 28.0917 15C29.2147 15.0187 32.1793 15.2049 33.6301 12.3525C33.6656 12.3044 33.9992 11.5959 33.9992 11.5959L33.4462 11.2176L33.4466 11.2181ZM8.52682 9.44056H4.85375V13.1776H8.52682V9.44056ZM13.2721 9.44056H9.59907V13.1776H13.2721V9.44056ZM18.0175 9.44056H14.3444V13.1776H18.0175V9.44056ZM22.7628 9.44056H19.0897V13.1776H22.7628V9.44056ZM3.7815 9.44056H0.108423V13.1776H3.7815V9.44056ZM8.52682 4.72051H4.85375V8.45758H8.52682V4.72051ZM13.2721 4.72051H9.59907V8.45758H13.2721V4.72051ZM18.0175 4.72051H14.3444V8.45758H18.0175V4.72051ZM18.0175 0H14.3444V3.73707H18.0175V0Z" fill="#22314E"/>
</g>
<defs>
<clipPath id="clip0_576_541">
<rect width="34" height="27.303" fill="white"/>
</clipPath>
</defs>
</svg>
