<svg width="100" height="100" viewBox="0 0 100 100" fill="none" xmlns="http://www.w3.org/2000/svg">
<mask id="mask0_578_2065" style="mask-type:alpha" maskUnits="userSpaceOnUse" x="0" y="0" width="100" height="100">
<rect width="100" height="100" fill="#D9D9D9"/>
</mask>
<g mask="url(#mask0_578_2065)">
<path d="M91.6666 91.5625L75.1041 75H31.2499C29.5312 75 28.06 74.3879 26.8364 73.1636C25.6121 71.94 24.9999 70.4688 24.9999 68.75V60.4167H70.8333C72.552 60.4167 74.0235 59.8045 75.2478 58.5802C76.4715 57.3566 77.0833 55.8854 77.0833 54.1667V25H85.4166C87.1353 25 88.6069 25.6118 89.8312 26.8354C91.0548 28.0597 91.6666 29.5313 91.6666 31.25V91.5625ZM14.5833 55.7292L22.3958 47.9167H64.5833V14.5833H14.5833V55.7292ZM8.33325 70.8334V14.5833C8.33325 12.8646 8.9454 11.3931 10.1697 10.1688C11.3933 8.94515 12.8645 8.33334 14.5833 8.33334H64.5833C66.302 8.33334 67.7735 8.94515 68.9978 10.1688C70.2215 11.3931 70.8333 12.8646 70.8333 14.5833V47.9167C70.8333 49.6354 70.2215 51.1066 68.9978 52.3302C67.7735 53.5545 66.302 54.1667 64.5833 54.1667H24.9999L8.33325 70.8334Z" fill="#22314E"/>
</g>
</svg>
