<?xml version="1.0" encoding="UTF-8" standalone="no"?>
<!-- Created with Inkscape (http://www.inkscape.org/) -->

<svg
   version="1.1"
   width="700"
   height="700"
   id="svg2"
   inkscape:version="1.2.2 (b0a8486541, 2022-12-01)"
   sodipodi:docname="gazebo.svg"
   xmlns:inkscape="http://www.inkscape.org/namespaces/inkscape"
   xmlns:sodipodi="http://sodipodi.sourceforge.net/DTD/sodipodi-0.dtd"
   xmlns="http://www.w3.org/2000/svg"
   xmlns:svg="http://www.w3.org/2000/svg"
   xmlns:rdf="http://www.w3.org/1999/02/22-rdf-syntax-ns#"
   xmlns:cc="http://creativecommons.org/ns#"
   xmlns:dc="http://purl.org/dc/elements/1.1/">
  <sodipodi:namedview
     pagecolor="#ffffff"
     bordercolor="#666666"
     borderopacity="1"
     objecttolerance="10"
     gridtolerance="10"
     guidetolerance="10"
     inkscape:pageopacity="0"
     inkscape:pageshadow="2"
     inkscape:window-width="1920"
     inkscape:window-height="995"
     id="namedview4015"
     showgrid="false"
     inkscape:zoom="0.67063555"
     inkscape:cx="-68.591652"
     inkscape:cy="569.60893"
     inkscape:window-x="1920"
     inkscape:window-y="0"
     inkscape:window-maximized="1"
     inkscape:current-layer="svg2"
     inkscape:showpageshadow="2"
     inkscape:pagecheckerboard="0"
     inkscape:deskcolor="#d1d1d1" />
  <defs
     id="defs4">
    <clipPath
       id="clipPath3020">
      <path
         d="M 0,0 H 5286.97 V 1276 H 0 Z"
         id="path3022"
         inkscape:connector-curvature="0" />
    </clipPath>
    <clipPath
       id="clipPath3111">
      <path
         d="M 0,0 H 5286.98 V 1276 H 0 Z"
         id="path3113"
         inkscape:connector-curvature="0" />
    </clipPath>
    <clipPath
       id="clipPath3222">
      <path
         d="M 0,0 H 1958.6 V 2815 H 0 Z"
         id="path3224"
         inkscape:connector-curvature="0" />
    </clipPath>
    <clipPath
       id="clipPath3333">
      <path
         d="M 0,0 H 1958.59 V 2815 H 0 Z"
         id="path3335"
         inkscape:connector-curvature="0" />
    </clipPath>
  </defs>
  <metadata
     id="metadata7">
    <rdf:RDF>
      <cc:Work
         rdf:about="">
        <dc:format>image/svg+xml</dc:format>
        <dc:type
           rdf:resource="http://purl.org/dc/dcmitype/StillImage" />
      </cc:Work>
    </rdf:RDF>
  </metadata>
  <g
     id="g219"
     transform="translate(51.625005,-1.905)">
    <path
       style="fill:#ffffff;fill-opacity:1;stroke:#000000;stroke-width:1px;stroke-linecap:butt;stroke-linejoin:miter;stroke-opacity:1"
       d="m 184.89924,261.69206 1.49112,125.25433 108.85197,64.86384 5.21893,-60.39048 c 0,0 61.13604,-37.27807 56.66267,-40.26031 -4.47337,-2.98225 -172.22469,-89.46738 -172.22469,-89.46738 z"
       id="path5287"
       inkscape:connector-curvature="0" />
    <g
       id="g201">
      <g
         transform="translate(-126.45002,-348.58217)"
         id="layer1">
        <g
           transform="matrix(1.25,0,0,-1.25,302.41314,876.42467)"
           id="g3325">
          <g
             transform="scale(0.1)"
             id="g3327">
            <g
               id="g3329">
              <g
                 clip-path="url(#clipPath3333)"
                 id="g3331">
                <path
                   d="m 915.156,1577.59 29.512,-18.33 c 10.613,-6.57 22.629,-9.86 34.641,-9.86 12.039,0 24.071,3.29 34.691,9.93 l 29.55,18.39 299.81,-185.68 -400.294,-249.26 c -19.316,-12 -31.023,-33.17 -30.949,-55.9 L 913.301,678.32 190.09,1127.39 Z M 128.945,2065.79 790.703,1654.87 128.945,1243.95 Z M 1957.03,1656.17 c -0.08,23.81 -13.03,45.72 -33.87,57.24 -20.82,11.54 -46.25,10.89 -66.48,-1.7 l -388.98,-242.21 -299.81,185.64 759.75,473.09 c 19.27,12.01 30.97,33.11 30.95,55.82 -0.04,22.69 -11.79,43.77 -31.09,55.72 l -913.63,565.73 c -21.214,13.14 -48.018,13.12 -69.202,-0.04 L 31.0078,2238.13 C 11.7266,2226.16 0,2205.06 0,2182.37 0,2176.46 0,1133.28 0,1127.39 0,1104.65 11.7266,1083.6 31.0078,1071.6 L 944.668,504.262 c 0.437,-0.231 0.918,-0.434 1.367,-0.703 0.488,-0.278 0.93,-0.629 1.426,-0.938 1.055,-0.551 2.141,-0.98 3.203,-1.48 1.082,-0.551 2.141,-1.102 3.231,-1.532 1.703,-0.738 3.441,-1.328 5.187,-1.871 1.023,-0.347 2.039,-0.738 3.074,-1.019 1.965,-0.551 3.938,-0.899 5.942,-1.25 0.855,-0.117 1.707,-0.348 2.566,-0.469 2.859,-0.391 5.742,-0.621 8.621,-0.621 h 0.024 c 5.972,0 11.961,0.82 17.761,2.5 0.02,0 0.047,0 0.078,0 2.247,0.621 4.422,1.48 6.602,2.383 0.65,0.238 1.34,0.429 1.99,0.699 1.8,0.789 3.52,1.801 5.28,2.777 0.95,0.543 1.95,0.973 2.89,1.524 l 0.05,0.039 c 0.02,0.039 0.02,0.039 0.04,0.039 l 1.74,1.09 911.84,566.17 c 19.33,12.04 31.09,33.17 31.01,55.98 l -1.56,528.59"
                   id="path3337"
                   style="fill:#231f20;fill-opacity:1;fill-rule:nonzero;stroke:none"
                   inkscape:connector-curvature="0" />
                <path
                   d="m 1043.52,1050.67 1.07,-372.818 782.6,485.978 -1.1,374.18 -782.57,-487.34"
                   id="path3339"
                   style="fill:#ffffff;fill-opacity:1;fill-rule:nonzero;stroke:none"
                   inkscape:connector-curvature="0" />
                <path
                   d="M 190.098,2182.37 979.27,1692.35 1768.5,2183.8 979.363,2672.45 190.098,2182.37"
                   id="path3341"
                   style="fill:#f58113;fill-opacity:1;fill-rule:nonzero;stroke:none"
                   inkscape:connector-curvature="0" />
                <path
                   d="M 311.355,139.5 C 304.648,52.5781 228.789,0 156.863,0 69.5508,0 0,70.75 0,151.371 c 0,75.859 62.832,151.328 156.465,151.328 77.461,0 126.847,-53.359 138.301,-83.008 h -33.985 c -16.582,28.868 -55.32,56.52 -103.918,56.52 -73.8864,0 -127.6247,-60.07 -127.6247,-125.27 0,-65.191 53.7383,-124.4527 128.8207,-124.4527 62.031,0 107.859,45.8203 118.132,86.5237 H 113.008 V 139.5 h 198.347"
                   id="path3343"
                   style="fill:#231f20;fill-opacity:1;fill-rule:nonzero;stroke:none"
                   inkscape:connector-curvature="0" />
                <path
                   d="m 478.035,130 h 113.41 l -56.113,134.34 z m 40.695,167.539 h 32.801 L 677.188,5.16016 H 645.176 L 602.898,103.52 H 466.98 L 424.309,5.16016 h -30.43 L 518.73,297.539"
                   id="path3345"
                   style="fill:#231f20;fill-opacity:1;fill-rule:nonzero;stroke:none"
                   inkscape:connector-curvature="0" />
                <path
                   d="M 776.438,31.6406 920.273,271.059 h -139.48 v 26.48 h 172.273 v -26.48 L 809.629,31.6406 H 957.41 V 5.16016 H 776.438 V 31.6406"
                   id="path3347"
                   style="fill:#231f20;fill-opacity:1;fill-rule:nonzero;stroke:none"
                   inkscape:connector-curvature="0" />
                <path
                   d="m 1067.3,297.539 h 160.04 v -26.48 H 1096.56 V 165.98 h 126.45 V 139.5 H 1096.56 V 31.6406 h 130.78 V 5.16016 H 1067.3 V 297.539"
                   id="path3349"
                   style="fill:#231f20;fill-opacity:1;fill-rule:nonzero;stroke:none"
                   inkscape:connector-curvature="0" />
                <path
                   d="m 1381.5,31.6406 h 41.1 c 24.51,0 39.51,1.1797 55.29,7.5 18.18,7.461 30.84,27.6211 30.84,49.7696 0,22.5388 -15.02,41.9098 -34.35,49.4098 -13.87,5.508 -25.71,6.68 -56.92,6.68 h -35.96 z m 0,139.8904 h 36.74 c 22.93,0 35.96,1.168 50.2,8.278 13.83,7.109 23.71,23.671 23.71,41.089 0,13.442 -4.77,22.891 -12.27,31.993 -11.44,13.05 -29.25,18.168 -59.25,18.168 h -39.13 z m -29.25,126.008 h 73.49 c 92.07,0 95.63,-65.969 95.63,-77.848 0,-34.371 -21.74,-50.55 -31.99,-58.871 29.21,-11.832 48.59,-38.32 48.59,-71.9098 0,-28.0508 -13.05,-53.75 -33.58,-67.5821 -24.9,-14.60935 -44.27,-16.55857 -78.65,-16.16794 h -73.49 V 297.539"
                   id="path3351"
                   style="fill:#231f20;fill-opacity:1;fill-rule:nonzero;stroke:none"
                   inkscape:connector-curvature="0" />
                <path
                   d="m 1798.57,26.4883 c 67.56,0 125.65,54.9219 125.65,124.4527 0,68.36 -56.49,125.27 -125.65,125.27 -65.99,0 -125.25,-53.75 -125.25,-126.441 0,-66.7583 57.27,-123.2817 125.25,-123.2817 z m 0,276.2107 c 82.17,0 154.87,-65.199 154.87,-151.328 C 1953.44,65.1992 1880.35,0 1798.57,0 c -82.98,0 -154.51,67.5781 -154.51,149.77 0,92.07 76.66,152.929 154.51,152.929"
                   id="path3353"
                   style="fill:#231f20;fill-opacity:1;fill-rule:nonzero;stroke:none"
                   inkscape:connector-curvature="0" />
              </g>
            </g>
          </g>
        </g>
      </g>
    </g>
  </g>
</svg>
