<svg width="26" height="26" viewBox="0 0 26 26" fill="none" xmlns="http://www.w3.org/2000/svg">
<g clip-path="url(#clip0_576_8)">
<path d="M13.5417 0.8125C6.65821 0.8125 1.08337 6.38733 1.08337 13.2708C1.08337 18.7839 4.64971 23.4401 9.60162 25.09C10.2245 25.1994 10.4575 24.8257 10.4575 24.4985C10.4575 24.2028 10.4423 23.2223 10.4423 22.178C7.31254 22.7543 6.50329 21.4153 6.25412 20.7155C6.11329 20.3569 5.50662 19.2508 4.97579 18.9551C4.54029 18.7211 3.91737 18.1448 4.96062 18.1296C5.94212 18.1144 6.64304 19.0331 6.87704 19.4068C7.99829 21.2918 9.78904 20.761 10.5051 20.4338C10.6135 19.6246 10.9406 19.0797 11.2992 18.7677C8.52696 18.4568 5.63121 17.3821 5.63121 12.6165C5.63121 11.2623 6.11329 10.1411 6.90737 9.269C6.78279 8.957 6.34729 7.67975 7.03196 5.967C7.03196 5.967 8.07521 5.63983 10.4585 7.24425C11.4552 6.96367 12.5136 6.82392 13.5731 6.82392C14.6315 6.82392 15.691 6.96475 16.6877 7.24425C19.071 5.62467 20.1132 5.967 20.1132 5.967C20.799 7.67975 20.3624 8.957 20.2378 9.269C21.0319 10.1411 21.515 11.2461 21.515 12.6165C21.515 17.3973 18.603 18.4557 15.8308 18.7677C16.2825 19.1577 16.6715 19.9052 16.6715 21.073C16.6715 22.7392 16.6563 24.0782 16.6563 24.4985C16.6563 24.8257 16.8903 25.2157 17.5121 25.0911C22.4348 23.4401 26 18.7677 26 13.2708C26 6.38733 20.4252 0.8125 13.5417 0.8125Z" fill="#22314E"/>
</g>
<defs>
<clipPath id="clip0_576_8">
<rect width="26" height="26" fill="white"/>
</clipPath>
</defs>
</svg>
