<svg width="104" height="104" viewBox="0 0 104 104" fill="none" xmlns="http://www.w3.org/2000/svg">
<mask id="mask0_578_2113" style="mask-type:alpha" maskUnits="userSpaceOnUse" x="0" y="0" width="104" height="104">
<rect width="104" height="104" fill="#D9D9D9"/>
</mask>
<g mask="url(#mask0_578_2113)">
<path d="M51.4593 86.6667C51.7482 86.6667 52.0371 86.5945 52.326 86.4501C52.6149 86.3056 52.8316 86.1612 52.976 86.0167L88.5093 50.4834C89.376 49.6167 90.008 48.6417 90.4052 47.5584C90.8024 46.4751 91.001 45.3917 91.001 44.3084C91.001 43.1529 90.8024 42.0515 90.4052 41.0042C90.008 39.957 89.376 39.0362 88.5093 38.2417L70.0927 19.8251C69.2982 18.9584 68.3774 18.3265 67.3302 17.9292C66.283 17.532 65.1816 17.3334 64.026 17.3334C62.9427 17.3334 61.8593 17.532 60.776 17.9292C59.6927 18.3265 58.7177 18.9584 57.851 19.8251L56.6593 21.0167L64.676 29.1417C65.7593 30.1529 66.5538 31.3084 67.0593 32.6084C67.5649 33.9084 67.8177 35.2806 67.8177 36.7251C67.8177 39.7584 66.7885 42.3042 64.7302 44.3626C62.6718 46.4209 60.126 47.4501 57.0927 47.4501C55.6482 47.4501 54.258 47.1973 52.9218 46.6917C51.5857 46.1862 50.4121 45.4279 49.401 44.4167L41.276 36.4001L22.3177 55.3584C22.101 55.5751 21.9385 55.8098 21.8302 56.0626C21.7218 56.3154 21.6677 56.5862 21.6677 56.8751C21.6677 57.4529 21.8843 57.9765 22.3177 58.4459C22.751 58.9154 23.2566 59.1501 23.8343 59.1501C24.1232 59.1501 24.4121 59.0779 24.701 58.9334C24.9899 58.789 25.2066 58.6445 25.351 58.5001L40.0843 43.7667L46.151 49.8334L31.526 64.5667C31.3093 64.7834 31.1468 65.0181 31.0385 65.2709C30.9302 65.5237 30.876 65.7945 30.876 66.0834C30.876 66.6612 31.0927 67.1667 31.526 67.6001C31.9593 68.0334 32.4649 68.2501 33.0427 68.2501C33.3316 68.2501 33.6205 68.1779 33.9093 68.0334C34.1982 67.889 34.4149 67.7445 34.5593 67.6001L49.2927 52.9751L55.3593 59.0417L40.7343 73.7751C40.5177 73.9195 40.3552 74.1362 40.2468 74.4251C40.1385 74.714 40.0843 75.0029 40.0843 75.2917C40.0843 75.8695 40.301 76.3751 40.7343 76.8084C41.1677 77.2417 41.6732 77.4584 42.251 77.4584C42.5399 77.4584 42.8107 77.4042 43.0635 77.2959C43.3163 77.1876 43.551 77.0251 43.7677 76.8084L58.501 62.1834L64.5677 68.2501L49.8343 82.9834C49.6177 83.2001 49.4552 83.4348 49.3468 83.6876C49.2385 83.9404 49.1843 84.2112 49.1843 84.5001C49.1843 85.0779 49.4191 85.5834 49.8885 86.0167C50.358 86.4501 50.8816 86.6667 51.4593 86.6667ZM51.351 95.3334C48.6788 95.3334 46.3135 94.4487 44.2552 92.6792C42.1968 90.9098 40.9871 88.689 40.626 86.0167C38.1705 85.6556 36.1121 84.6445 34.451 82.9834C32.7899 81.3223 31.7788 79.264 31.4177 76.8084C28.9621 76.4473 26.9218 75.4181 25.2968 73.7209C23.6718 72.0237 22.6788 69.9834 22.3177 67.6001C19.5732 67.239 17.3343 66.0473 15.601 64.0251C13.8677 62.0029 13.001 59.6195 13.001 56.8751C13.001 55.4306 13.2718 54.0404 13.8135 52.7042C14.3552 51.3681 15.1316 50.1945 16.1427 49.1834L41.276 24.1584L55.4677 38.3501C55.6121 38.5667 55.8288 38.7292 56.1177 38.8376C56.4066 38.9459 56.6955 39.0001 56.9843 39.0001C57.6343 39.0001 58.176 38.8015 58.6093 38.4042C59.0427 38.007 59.2593 37.4834 59.2593 36.8334C59.2593 36.5445 59.2052 36.2556 59.0968 35.9667C58.9885 35.6779 58.826 35.4612 58.6093 35.3167L43.1177 19.8251C42.3232 18.9584 41.4024 18.3265 40.3552 17.9292C39.308 17.532 38.2066 17.3334 37.051 17.3334C35.9677 17.3334 34.8843 17.532 33.801 17.9292C32.7177 18.3265 31.7427 18.9584 30.876 19.8251L15.601 35.2084C14.951 35.8584 14.4093 36.6167 13.976 37.4834C13.5427 38.3501 13.2538 39.2167 13.1093 40.0834C12.9649 40.9501 12.9649 41.8348 13.1093 42.7376C13.2538 43.6404 13.5427 44.489 13.976 45.2834L7.69268 51.5667C6.4649 49.9056 5.56213 48.082 4.98435 46.0959C4.40657 44.1098 4.1899 42.1056 4.33435 40.0834C4.47879 38.0612 4.98435 36.0931 5.85102 34.1792C6.71768 32.2654 7.90935 30.5501 9.42602 29.0334L24.701 13.7584C26.4343 12.0973 28.3663 10.8334 30.4968 9.96675C32.6274 9.10008 34.8121 8.66675 37.051 8.66675C39.2899 8.66675 41.4746 9.10008 43.6052 9.96675C45.7357 10.8334 47.6316 12.0973 49.2927 13.7584L50.4843 14.9501L51.676 13.7584C53.4093 12.0973 55.3413 10.8334 57.4718 9.96675C59.6024 9.10008 61.7871 8.66675 64.026 8.66675C66.2649 8.66675 68.4496 9.10008 70.5802 9.96675C72.7107 10.8334 74.6066 12.0973 76.2677 13.7584L94.576 32.0667C96.2371 33.7279 97.501 35.6417 98.3677 37.8084C99.2343 39.9751 99.6677 42.1779 99.6677 44.4167C99.6677 46.6556 99.2343 48.8404 98.3677 50.9709C97.501 53.1015 96.2371 54.9973 94.576 56.6584L59.0427 92.0834C58.0316 93.0945 56.858 93.889 55.5218 94.4667C54.1857 95.0445 52.7955 95.3334 51.351 95.3334Z" fill="#22314E"/>
</g>
</svg>
