<svg width="36" height="36" viewBox="0 0 36 36" fill="none" xmlns="http://www.w3.org/2000/svg">
<mask id="mask0_576_98" style="mask-type:alpha" maskUnits="userSpaceOnUse" x="0" y="0" width="36" height="36">
<rect width="36" height="36" fill="#D9D9D9"/>
</mask>
<g mask="url(#mask0_576_98)">
<path d="M17.8129 30.0001C17.9129 30.0001 18.0129 29.9751 18.1129 29.9251C18.2129 29.8751 18.2879 29.8251 18.3379 29.7751L30.6379 17.4751C30.9379 17.1751 31.1566 16.8376 31.2941 16.4626C31.4316 16.0876 31.5004 15.7126 31.5004 15.3376C31.5004 14.9376 31.4316 14.5564 31.2941 14.1939C31.1566 13.8314 30.9379 13.5126 30.6379 13.2376L24.2629 6.86262C23.9879 6.56262 23.6691 6.34387 23.3066 6.20637C22.9441 6.06887 22.5629 6.00012 22.1629 6.00012C21.7879 6.00012 21.4129 6.06887 21.0379 6.20637C20.6629 6.34387 20.3254 6.56262 20.0254 6.86262L19.6129 7.27512L22.3879 10.0876C22.7629 10.4376 23.0379 10.8376 23.2129 11.2876C23.3879 11.7376 23.4754 12.2126 23.4754 12.7126C23.4754 13.7626 23.1191 14.6439 22.4066 15.3564C21.6941 16.0689 20.8129 16.4251 19.7629 16.4251C19.2629 16.4251 18.7816 16.3376 18.3191 16.1626C17.8566 15.9876 17.4504 15.7251 17.1004 15.3751L14.2879 12.6001L7.72535 19.1626C7.65035 19.2376 7.5941 19.3189 7.5566 19.4064C7.5191 19.4939 7.50035 19.5876 7.50035 19.6876C7.50035 19.8876 7.57535 20.0689 7.72535 20.2314C7.87535 20.3939 8.05035 20.4751 8.25035 20.4751C8.35035 20.4751 8.45035 20.4501 8.55035 20.4001C8.65035 20.3501 8.72535 20.3001 8.77535 20.2501L13.8754 15.1501L15.9754 17.2501L10.9129 22.3501C10.8379 22.4251 10.7816 22.5064 10.7441 22.5939C10.7066 22.6814 10.6879 22.7751 10.6879 22.8751C10.6879 23.0751 10.7629 23.2501 10.9129 23.4001C11.0629 23.5501 11.2379 23.6251 11.4379 23.6251C11.5379 23.6251 11.6379 23.6001 11.7379 23.5501C11.8379 23.5001 11.9129 23.4501 11.9629 23.4001L17.0629 18.3376L19.1629 20.4376L14.1004 25.5376C14.0254 25.5876 13.9691 25.6626 13.9316 25.7626C13.8941 25.8626 13.8754 25.9626 13.8754 26.0626C13.8754 26.2626 13.9504 26.4376 14.1004 26.5876C14.2504 26.7376 14.4254 26.8126 14.6254 26.8126C14.7254 26.8126 14.8191 26.7939 14.9066 26.7564C14.9941 26.7189 15.0754 26.6626 15.1504 26.5876L20.2504 21.5251L22.3504 23.6251L17.2504 28.7251C17.1754 28.8001 17.1191 28.8814 17.0816 28.9689C17.0441 29.0564 17.0254 29.1501 17.0254 29.2501C17.0254 29.4501 17.1066 29.6251 17.2691 29.7751C17.4316 29.9251 17.6129 30.0001 17.8129 30.0001ZM17.7754 33.0001C16.8504 33.0001 16.0316 32.6939 15.3191 32.0814C14.6066 31.4689 14.1879 30.7001 14.0629 29.7751C13.2129 29.6501 12.5004 29.3001 11.9254 28.7251C11.3504 28.1501 11.0004 27.4376 10.8754 26.5876C10.0254 26.4626 9.3191 26.1064 8.7566 25.5189C8.1941 24.9314 7.85035 24.2251 7.72535 23.4001C6.77535 23.2751 6.00035 22.8626 5.40035 22.1626C4.80035 21.4626 4.50035 20.6376 4.50035 19.6876C4.50035 19.1876 4.5941 18.7064 4.7816 18.2439C4.9691 17.7814 5.23785 17.3751 5.58785 17.0251L14.2879 8.36262L19.2004 13.2751C19.2504 13.3501 19.3254 13.4064 19.4254 13.4439C19.5254 13.4814 19.6254 13.5001 19.7254 13.5001C19.9504 13.5001 20.1379 13.4314 20.2879 13.2939C20.4379 13.1564 20.5129 12.9751 20.5129 12.7501C20.5129 12.6501 20.4941 12.5501 20.4566 12.4501C20.4191 12.3501 20.3629 12.2751 20.2879 12.2251L14.9254 6.86262C14.6504 6.56262 14.3316 6.34387 13.9691 6.20637C13.6066 6.06887 13.2254 6.00012 12.8254 6.00012C12.4504 6.00012 12.0754 6.06887 11.7004 6.20637C11.3254 6.34387 10.9879 6.56262 10.6879 6.86262L5.40035 12.1876C5.17535 12.4126 4.98785 12.6751 4.83785 12.9751C4.68785 13.2751 4.58785 13.5751 4.53785 13.8751C4.48785 14.1751 4.48785 14.4814 4.53785 14.7939C4.58785 15.1064 4.68785 15.4001 4.83785 15.6751L2.66285 17.8501C2.23785 17.2751 1.92535 16.6439 1.72535 15.9564C1.52535 15.2689 1.45035 14.5751 1.50035 13.8751C1.55035 13.1751 1.72535 12.4939 2.02535 11.8314C2.32535 11.1689 2.73785 10.5751 3.26285 10.0501L8.55035 4.76262C9.15035 4.18762 9.8191 3.75012 10.5566 3.45012C11.2941 3.15012 12.0504 3.00012 12.8254 3.00012C13.6004 3.00012 14.3566 3.15012 15.0941 3.45012C15.8316 3.75012 16.4879 4.18762 17.0629 4.76262L17.4754 5.17512L17.8879 4.76262C18.4879 4.18762 19.1566 3.75012 19.8941 3.45012C20.6316 3.15012 21.3879 3.00012 22.1629 3.00012C22.9379 3.00012 23.6941 3.15012 24.4316 3.45012C25.1691 3.75012 25.8254 4.18762 26.4004 4.76262L32.7379 11.1001C33.3129 11.6751 33.7504 12.3376 34.0504 13.0876C34.3504 13.8376 34.5004 14.6001 34.5004 15.3751C34.5004 16.1501 34.3504 16.9064 34.0504 17.6439C33.7504 18.3814 33.3129 19.0376 32.7379 19.6126L20.4379 31.8751C20.0879 32.2251 19.6816 32.5001 19.2191 32.7001C18.7566 32.9001 18.2754 33.0001 17.7754 33.0001Z" fill="#22314E"/>
</g>
</svg>
