<?xml version="1.0" encoding="UTF-8" standalone="no"?>
<!-- Created with Inkscape (http://www.inkscape.org/) -->
<svg xmlns:inkscape="http://www.inkscape.org/namespaces/inkscape" xmlns:sodipodi="http://sodipodi.sourceforge.net/DTD/sodipodi-0.dtd" xmlns="http://www.w3.org/2000/svg" xmlns:svg="http://www.w3.org/2000/svg" version="1.1" id="svg1" width="468.34668" height="577.79999" viewBox="0 0 468.34668 577.79999" sodipodi:docname="buildfarmRobot_Grey_ColorArt.svg" inkscape:version="1.4.2 (ebf0e940d0, 2025-05-08)">
  <defs id="defs1"/>
  
  <g id="g1" inkscape:groupmode="layer" inkscape:label="1">
    <g id="group-R5">
      <path id="path2" d="M 2783.62,116.801 C 2783.62,52.2891 2333.47,0 1778.18,0 1222.9,0 772.75,52.2891 772.75,116.801 c 0,64.5 450.15,116.789 1005.43,116.789 555.29,0 1005.44,-52.289 1005.44,-116.789" style="fill:#959595;fill-opacity:1;fill-rule:nonzero;stroke:none" transform="matrix(0.13333333,0,0,-0.13333333,0,577.8)"/>
      <path id="path3" d="m 1216.89,4115.65 c 0,0 335.32,419.14 710.08,34.52 0,0 -216.97,29.58 -710.08,-34.52" style="fill:#f68d11;fill-opacity:1;fill-rule:nonzero;stroke:none" transform="matrix(0.13333333,0,0,-0.13333333,0,577.8)"/>
      <path id="path4" d="m 1246.48,2088.99 c 0,0 -281.07,98.62 -478.312,226.82 0,0 -103.555,-182.44 -197.242,-266.27 0,0 369.828,-286 660.764,-286 l -4.93,281.07 19.72,44.38" style="fill:#89cdf1;fill-opacity:1;fill-rule:nonzero;stroke:none" transform="matrix(0.13333333,0,0,-0.13333333,0,577.8)"/>
      <path id="path5" d="m 1246.48,1561.36 c 0,0 -241.62,-133.14 -562.14,-73.96 0,0 88.758,-261.35 9.863,-359.97 0,0 419.137,-24.66 596.657,123.28 l -44.38,310.65" style="fill:#89cdf1;fill-opacity:1;fill-rule:nonzero;stroke:none" transform="matrix(0.13333333,0,0,-0.13333333,0,577.8)"/>
      <path id="path6" d="m 2360.9,3109.72 103.55,83.82 c 0,0 14.8,251.49 -78.89,384.63 0,0 -98.63,29.58 -83.83,29.58 14.79,0 -143,404.35 -286,537.49 l -88.76,4.93 c 0,0 -517.76,24.65 -774.18,-59.17 0,0 -123.28,-162.73 -221.895,-572 l -93.692,-29.59 c 0,0 -83.828,-335.32 -54.242,-384.63 29.586,-49.31 128.207,-98.62 128.207,-98.62 0,0 197.242,-507.9 675.552,-532.55 l 4.93,-113.42 -152.86,-24.65 -19.72,-54.24 -69.04,-24.66 -14.79,-123.27 c 0,0 -73.97,9.86 -88.76,-44.38 l 19.72,-359.97 88.76,-39.45 v -73.97 c 0,0 -118.34,39.45 -98.62,-108.48 19.73,-147.93 54.24,-286 54.24,-286 l 49.31,-29.59 -4.93,-256.409 956.63,78.889 c 0,0 -2.62,130.58 -25.76,322.58 47.37,9.77 89.86,52.19 89.86,52.19 0,0 0,152.86 -34.51,286 -23.2,89.48 -86.45,83.17 -125.47,69.42 -8.19,35.88 -17.09,72.17 -26.73,108.66 l 4.26,-0.57 c 69.04,4.94 93.69,93.7 93.69,93.7 l -54.24,177.51 c -34.52,192.31 -152.86,128.21 -152.86,128.21 l -16.54,-31.69 c -11.98,27.38 -24.53,54.42 -37.7,81 l -54.24,19.73 -14.8,73.96 -138.07,-4.93 4.93,108.48 c 0,0 374.76,103.56 537.49,611.46" style="fill:#89cdf1;fill-opacity:1;fill-rule:nonzero;stroke:none" transform="matrix(0.13333333,0,0,-0.13333333,0,577.8)"/>
      <path id="path7" d="m 2203.11,2222.12 c 0,0 307.95,152.67 465.74,394.29 l 216.97,-197.24 c 0,0 -258.64,-448.53 -618.61,-433.74 l -64.1,236.69" style="fill:#89cdf1;fill-opacity:1;fill-rule:nonzero;stroke:none" transform="matrix(0.13333333,0,0,-0.13333333,0,577.8)"/>
      <path id="path8" d="m 2341.18,1674.78 c 0,0 463.52,-9.87 675.55,108.48 l 19.73,-340.24 c 0,0 -261.35,-192.31 -660.77,-54.24 l -34.51,286" style="fill:#89cdf1;fill-opacity:1;fill-rule:nonzero;stroke:none" transform="matrix(0.13333333,0,0,-0.13333333,0,577.8)"/>
      <path id="path9" d="m 2158.73,1014.01 c 0,0 59.17,-172.58 93.69,-236.69 34.51,-64.101 49.31,-128.199 14.79,-147.929 L 2439.8,382.84 2193.24,111.629 c 0,0 -207.1,286 -261.34,867.871 l 226.83,34.51" style="fill:#89cdf1;fill-opacity:1;fill-rule:nonzero;stroke:none" transform="matrix(0.13333333,0,0,-0.13333333,0,577.8)"/>
      <path id="path10" d="m 1734.66,964.699 c 0,0 -83.83,-305.719 54.24,-843.207 0,0 -404.35,83.828 -404.35,108.488 0,24.649 -19.72,325.45 49.31,438.86 l 34.52,305.73 266.28,-9.871" style="fill:#89cdf1;fill-opacity:1;fill-rule:nonzero;stroke:none" transform="matrix(0.13333333,0,0,-0.13333333,0,577.8)"/>
      <path id="path11" d="m 440.141,2107.45 c 68.972,-18.57 222.129,42 267.574,196.08 45.449,154.08 -63.313,249.58 -63.313,249.58 l 47.75,190.99 c 0,0 -68.972,58.36 -137.941,-26.53 -68.973,-84.88 -13.266,-198.95 -13.266,-198.95 0,0 -289.144,159.16 -424.433,76.93 0,0 -45.0979,-98.15 68.968,-108.76 l 84.887,-34.49 c 0,0 -140.594,23.88 -220.1756,-7.96 0,0 -87.5391,-92.84 37.1367,-119.37 124.6799,-26.53 151.2069,-15.92 151.2069,-15.92 0,0 -114.066,-37.13 -122.023,-37.13 -7.961,0 -98.1526,-34.49 -50.4026,-100.81 47.7456,-66.32 127.3286,-5.3 127.3286,-5.3 0,0 79.582,29.18 111.414,7.96 31.836,-21.23 135.289,-66.32 135.289,-66.32" style="fill:#89cdf1;fill-opacity:1;fill-rule:nonzero;stroke:none" transform="matrix(0.13333333,0,0,-0.13333333,0,577.8)"/>
      <path id="path12" d="m 566.52,1549.22 c 0,0 194.25,-199.8 66.597,-346.87 l -30.523,30.53 -69.375,305.24 33.301,11.1" style="fill:#89cdf1;fill-opacity:1;fill-rule:nonzero;stroke:none" transform="matrix(0.13333333,0,0,-0.13333333,0,577.8)"/>
      <path id="path13" d="m 458.727,1532.33 c -53.536,-25.1 -214.149,-60.23 -165.629,-225.86 v -41.83 c 0,0 -11.711,-76.96 58.554,-120.46 0,0 6.692,-127.15 122.133,-80.31 115.442,46.85 127.153,53.54 88.672,123.81 0,0 -15.059,31.79 -48.519,26.77 l 13.382,36.81 c 0,0 20.078,38.48 -25.093,117.11 l -8.368,25.09 c 0,0 38.481,50.2 -5.015,112.1 l -30.117,26.77" style="fill:#89cdf1;fill-opacity:1;fill-rule:nonzero;stroke:none" transform="matrix(0.13333333,0,0,-0.13333333,0,577.8)"/>
      <path id="path14" d="m 392.336,1499.66 c 0,0 -12.121,92.11 -65.449,109.08 -53.332,16.97 -172.117,84.85 -133.328,237.57 0,0 48.48,94.54 65.449,31.51 16.969,-63.03 99.39,-145.45 133.328,-152.72 l 55.758,80 -29.09,145.45 c 0,0 2.422,26.66 46.059,12.12 43.632,-14.55 152.718,-72.73 116.359,-198.78 -36.363,-126.06 -75.152,-87.27 -48.484,-176.97 26.664,-89.69 104.238,-448.46 104.238,-448.46 0,0 16.969,-48.48 67.875,-63.03 50.906,-14.54 118.785,-36.36 128.48,-145.45 C 843.227,820.898 782.625,772.41 763.23,801.5 743.836,830.59 724.445,937.25 646.871,939.68 l -65.449,-92.121 c 0,0 67.875,-167.258 -24.242,-126.047 -92.117,41.207 -147.875,109.078 -113.938,227.867 l 53.332,89.691 12.121,26.66 c 0,0 60.606,24.25 63.028,43.64 2.425,19.39 5.636,103.5 -57.785,105.08 0,0 16.574,28.25 16.574,47.64 0,19.39 -28.285,106.28 -28.285,106.28 0,0 41.91,75.22 -13.383,137.19 0,0 -18.934,28.03 -96.508,-5.9" style="fill:#f68d11;fill-opacity:1;fill-rule:nonzero;stroke:none" transform="matrix(0.13333333,0,0,-0.13333333,0,577.8)"/>
      <path id="path15" d="m 2926.96,2451.61 c -116.39,20.89 -262.63,128.33 -199.96,292.48 0,0 74.61,68.64 119.38,110.43 44.77,41.78 77.6,137.28 134.3,110.42 56.71,-26.86 83.57,-83.56 32.83,-131.32 -50.73,-47.75 -41.78,-62.67 -41.78,-62.67 l -20.89,-283.52 -23.88,-35.82" style="fill:#89cdf1;fill-opacity:1;fill-rule:nonzero;stroke:none" transform="matrix(0.13333333,0,0,-0.13333333,0,577.8)"/>
      <path id="path16" d="m 3126.92,2490.41 c 0,0 29.85,20.89 -23.87,32.83 -53.72,11.94 -125.35,53.72 -89.54,113.41 35.82,59.69 26.86,29.84 26.86,29.84 0,0 -47.75,116.4 14.92,140.27 l 17.91,23.88 c 0,0 -77.59,107.44 20.89,107.44 98.49,0 182.06,-86.55 131.32,-170.11 0,0 8.95,-83.57 -23.88,-113.41 l -5.97,-59.69 c 0,0 23.88,-119.38 -68.64,-104.46" style="fill:#89cdf1;fill-opacity:1;fill-rule:nonzero;stroke:none" transform="matrix(0.13333333,0,0,-0.13333333,0,577.8)"/>
      <path id="path17" d="m 2953.82,2982.85 c 0,0 -71.62,179.07 -205.93,68.64 l -86.55,-101.47 -41.78,32.83 c 0,0 53.72,223.83 238.76,256.66 185.04,32.83 310.38,26.86 310.38,26.86 l 77.6,-14.92 83.57,35.81 80.58,-2.98 -2.99,-223.84 -122.36,-11.93 c 0,0 -65.66,68.64 -134.3,17.9 -68.64,-50.73 -20.89,-119.38 -20.89,-119.38 l -62.68,-11.93 -20.89,-14.93 -65.66,44.77 -26.86,17.91" style="fill:#959595;fill-opacity:1;fill-rule:nonzero;stroke:none" transform="matrix(0.13333333,0,0,-0.13333333,0,577.8)"/>
      <path id="path18" d="m 3037.39,2860.48 -44.77,-53.72 -20.89,-35.81 -41.78,-772.98 c 0,0 11.93,-74.61 104.45,-62.67 0,0 59.69,2.98 71.63,107.44 l -2.98,480.5 c 0,0 -119.38,11.94 -83.57,101.47 l 14.92,53.72 c 0,0 -41.78,101.47 20.89,128.33 l 17.91,23.88 -35.81,29.84" style="fill:#f68d11;fill-opacity:1;fill-rule:nonzero;stroke:none" transform="matrix(0.13333333,0,0,-0.13333333,0,577.8)"/>
      <path id="path19" d="m 3376.95,1909.28 -41.79,14.93 -14.92,65.66 35.82,340.23 -20.9,26.86 23.88,188.02 98.49,-8.96 -8.96,-199.96 -41.78,-20.89 -32.83,-364.1 2.99,-41.79" style="fill:#959595;fill-opacity:1;fill-rule:nonzero;stroke:none" transform="matrix(0.13333333,0,0,-0.13333333,0,577.8)"/>
      <path id="path20" d="m 3427.68,1828.7 c 0,8.96 -14.92,74.62 -14.92,74.62 l -77.6,20.89 -17.9,-38.8 71.63,-29.85 38.79,-26.86" style="fill:#89cdf1;fill-opacity:1;fill-rule:nonzero;stroke:none" transform="matrix(0.13333333,0,0,-0.13333333,0,577.8)"/>
      <path id="path21" d="m 3320.24,1739.17 c -2.98,8.95 -56.7,80.58 -56.7,80.58 l -35.82,-38.8 -65.65,-486.47 c 0,0 -2.99,-65.65 101.47,-74.61 104.45,-8.95 92.52,104.46 92.52,104.46 l 8.95,122.36 c 0,0 -74.61,-23.87 -98.49,50.74 -23.87,74.61 35.82,65.66 35.82,65.66 0,0 -71.63,59.69 -20.9,140.27 l 38.8,35.81" style="fill:#f68d11;fill-opacity:1;fill-rule:nonzero;stroke:none" transform="matrix(0.13333333,0,0,-0.13333333,0,577.8)"/>
      <path id="path22" d="m 3177.88,1463.33 c -68.47,0 -72.75,-17.11 -109.13,89.88 -36.37,106.98 -36.37,209.7 -36.37,216.11 0,6.42 59.91,57.78 59.91,57.78 0,0 132.67,139.09 151.93,186.16 19.25,47.08 102.71,-51.35 83.45,-87.73 -19.26,-36.38 -89.87,-132.67 -89.87,-132.67 l -49.22,-282.45 -10.7,-47.08" style="fill:#89cdf1;fill-opacity:1;fill-rule:nonzero;stroke:none" transform="matrix(0.13333333,0,0,-0.13333333,0,577.8)"/>
      <path id="path23" d="m 3494.57,1760.77 c -39.04,39.04 -132.66,136.94 -181.88,102.71 -49.22,-34.24 -10.7,-111.27 -6.42,-124.11 0,0 -87.73,-72.76 -17.12,-158.35 0,0 -98.43,-121.97 51.36,-143.36 l 25.68,-14.98 14.97,-19.26 c 0,0 59.92,2.14 55.64,117.69 0,0 47.07,40.65 23.54,134.81 0,0 75.96,63.12 34.23,104.85" style="fill:#89cdf1;fill-opacity:1;fill-rule:nonzero;stroke:none" transform="matrix(0.13333333,0,0,-0.13333333,0,577.8)"/>
      <path id="path24" d="m 1531.19,3330.55 c 0,-140.05 -113.53,-253.59 -253.59,-253.59 -140.05,0 -253.58,113.54 -253.58,253.59 0,140.05 113.53,253.59 253.58,253.59 140.06,0 253.59,-113.54 253.59,-253.59" style="fill:#ffffff;fill-opacity:1;fill-rule:nonzero;stroke:none" transform="matrix(0.13333333,0,0,-0.13333333,0,577.8)"/>
      <path id="path25" d="m 2266.59,3376.2 c 0,-140.06 -113.53,-253.59 -253.59,-253.59 -140.05,0 -253.58,113.53 -253.58,253.59 0,140.05 113.53,253.58 253.58,253.58 140.06,0 253.59,-113.53 253.59,-253.58" style="fill:#ffffff;fill-opacity:1;fill-rule:nonzero;stroke:none" transform="matrix(0.13333333,0,0,-0.13333333,0,577.8)"/>
      <path id="path26" d="m 1384.11,3325.48 c 0,-56.02 -45.41,-101.44 -101.43,-101.44 -56.02,0 -101.44,45.42 -101.44,101.44 0,56.02 45.42,101.43 101.44,101.43 56.02,0 101.43,-45.41 101.43,-101.43" style="fill:#f68d11;fill-opacity:1;fill-rule:nonzero;stroke:none" transform="matrix(0.13333333,0,0,-0.13333333,0,577.8)"/>
      <path id="path27" d="m 2094.15,3376.2 c 0,-56.02 -45.41,-101.44 -101.43,-101.44 -56.02,0 -101.44,45.42 -101.44,101.44 0,56.02 45.42,101.43 101.44,101.43 56.02,0 101.43,-45.41 101.43,-101.43" style="fill:#f68d11;fill-opacity:1;fill-rule:nonzero;stroke:none" transform="matrix(0.13333333,0,0,-0.13333333,0,577.8)"/>
      <path id="path28" d="m 1394.25,2940.03 c 86.22,-86.22 218.09,-131.87 329.67,-96.36 111.57,35.5 207.94,157.22 207.94,157.22 0,0 -167.37,15.21 -385.45,-25.36 l -152.16,-35.5" style="fill:#ffffff;fill-opacity:1;fill-rule:nonzero;stroke:none" transform="matrix(0.13333333,0,0,-0.13333333,0,577.8)"/>
      <path id="path29" d="m 1549.68,1614.22 c 0,79.45 -18.06,357.51 220.28,390.01 238.34,32.5 278.06,-306.95 274.45,-346.67 l -494.73,-43.34" style="fill:#f68d11;fill-opacity:1;fill-rule:nonzero;stroke:none" transform="matrix(0.13333333,0,0,-0.13333333,0,577.8)"/>
      <path id="path30" d="m 1772.87,4234.63 c -5.78,-22.25 -45.68,-31.14 -89.13,-19.85 -43.44,11.28 -73.98,38.46 -68.2,60.71 5.78,22.24 45.68,31.13 89.13,19.85 43.44,-11.29 73.98,-38.46 68.2,-60.71" style="fill:#ffffff;fill-opacity:1;fill-rule:nonzero;stroke:none" transform="matrix(0.13333333,0,0,-0.13333333,0,577.8)"/>
      <path id="path31" d="m 1150.16,4053.3 c 0,0 512.54,152.23 865.57,91.94 0,0 210.59,-266.03 268.62,-672.22 0,0 -226.84,580.28 -321.8,585.55 0,0 -129.25,79.9 -812.39,-5.27" style="fill:#ffffff;fill-opacity:1;fill-rule:nonzero;stroke:none" transform="matrix(0.13333333,0,0,-0.13333333,0,577.8)"/>
      <path id="path32" d="m 1962.55,2296.63 c 0,0 158.26,-242.66 290.14,-817.66 0,0 -137.69,631.26 -227.1,822.05 l -63.04,-4.39" style="fill:#ffffff;fill-opacity:1;fill-rule:nonzero;stroke:none" transform="matrix(0.13333333,0,0,-0.13333333,0,577.8)"/>
      <path id="path33" d="m 1999.48,2312.46 -246.45,-198.89 v 81.36 l 206.1,184.4 40.35,-66.87" style="fill:#ffffff;fill-opacity:1;fill-rule:nonzero;stroke:none" transform="matrix(0.13333333,0,0,-0.13333333,0,577.8)"/>
      <path id="path34" d="m 2194.33,615.68 c 0,0 70.17,-216.379 146.1,-286.879 l 65.06,59.14 -147.86,236.579 -63.3,-8.84" style="fill:#ffffff;fill-opacity:1;fill-rule:nonzero;stroke:none" transform="matrix(0.13333333,0,0,-0.13333333,0,577.8)"/>
      <path id="path35" d="m 2283.8,716 c 0,-20.641 -16.74,-37.379 -37.38,-37.379 -20.64,0 -37.38,16.738 -37.38,37.379 0,20.652 16.74,37.379 37.38,37.379 20.64,0 37.38,-16.727 37.38,-37.379" style="fill:#ffffff;fill-opacity:1;fill-rule:nonzero;stroke:none" transform="matrix(0.13333333,0,0,-0.13333333,0,577.8)"/>
      <path id="path36" d="m 2079.83,2251.71 c 0,0 101.55,33.64 122.07,-53.59 l 66.71,-256.55 c 0,0 -39.18,18.35 -62.79,108.62 -46.27,176.96 -118.34,174.66 -118.34,174.66 l -7.65,26.86" style="fill:#ffffff;fill-opacity:1;fill-rule:nonzero;stroke:none" transform="matrix(0.13333333,0,0,-0.13333333,0,577.8)"/>
      <path id="path37" d="m 2224.82,1738.85 c 0,0 105.46,17.9 112.57,-71.43 l 27.17,-263.68 c 0,0 -21.44,40.4 -31.13,133.2 -19,181.92 -105.11,174.2 -105.11,174.2 l -3.5,27.71" style="fill:#ffffff;fill-opacity:1;fill-rule:nonzero;stroke:none" transform="matrix(0.13333333,0,0,-0.13333333,0,577.8)"/>
      <path id="path38" d="m 1598.42,591.992 c -6.25,-162.543 -6.25,-312.582 25.01,-381.351 l 75.02,-31.262 c 0,0 -43.76,125.043 -50.01,387.613 l -50.02,25" style="fill:#ffffff;fill-opacity:1;fill-rule:nonzero;stroke:none" transform="matrix(0.13333333,0,0,-0.13333333,0,577.8)"/>
      <path id="path39" d="m 1971.36,18.3594 c 32.17,0 32.23,50 0,50 -32.17,0 -32.22,-50 0,-50 v 0" style="fill:#959595;fill-opacity:1;fill-rule:nonzero;stroke:none" transform="matrix(0.13333333,0,0,-0.13333333,0,577.8)"/>
      <path id="path40" d="m 1385.17,3408.38 c 0,-26.49 -21.48,-47.96 -47.96,-47.96 -26.49,0 -47.96,21.47 -47.96,47.96 0,26.49 21.47,47.96 47.96,47.96 26.48,0 47.96,-21.47 47.96,-47.96" style="fill:#ffffff;fill-opacity:1;fill-rule:nonzero;stroke:none" transform="matrix(0.13333333,0,0,-0.13333333,0,577.8)"/>
      <path id="path41" d="m 2091.17,3451.64 c 0,-26.49 -21.48,-47.96 -47.96,-47.96 -26.49,0 -47.96,21.47 -47.96,47.96 0,26.49 21.47,47.95 47.96,47.95 26.48,0 47.96,-21.46 47.96,-47.95" style="fill:#ffffff;fill-opacity:1;fill-rule:nonzero;stroke:none" transform="matrix(0.13333333,0,0,-0.13333333,0,577.8)"/>
      <path id="path42" d="M 1169.07,4057.98 C 1007,3810.09 920.676,3448.52 937.941,3088.29 c 11.75,-239.42 347.779,-605.85 724.039,-588.25 396.36,18.52 671.87,440.72 664.46,653.43 -18.73,390.73 -134.28,739.93 -317.39,959.92 -287.67,32.86 -570.15,14.22 -839.98,-55.41 z m 466.06,-1617.09 c -398.51,0 -735.743,385.91 -748.446,644.91 -17.965,374.79 73.64,751.9 245.046,1008.77 l 5.41,8.11 9.42,2.47 c 282.07,74.12 577.67,93.64 878.58,58.04 l 9.99,-1.18 6.53,-7.67 c 194.07,-227.96 316.56,-591.99 336.05,-998.75 4.48,-128.32 -73.55,-308.46 -198.77,-448.11 -84.52,-94.28 -263.78,-254.19 -514.57,-265.91 -9.76,-0.46 -19.55,-0.68 -29.24,-0.68" style="fill:#030806;fill-opacity:1;fill-rule:nonzero;stroke:none" transform="matrix(0.13333333,0,0,-0.13333333,0,577.8)"/>
      <path id="path43" d="m 910.207,2978.48 c -55.34,31.41 -102.566,66.85 -140.379,105.32 l -5.527,5.62 -0.336,7.88 c -5.504,127.86 14.539,270.36 59.562,395.12 l 2.797,7.74 7.371,3.67 c 31.614,15.74 67.328,28.63 106.137,38.31 l 9.941,-39.84 c -32.914,-8.21 -63.285,-18.84 -90.414,-31.65 -40.332,-114.65 -58.711,-232.05 -54.687,-349.24 34.203,-33.62 76.484,-64.83 125.801,-92.82 l -20.266,-50.11" style="fill:#030806;fill-opacity:1;fill-rule:nonzero;stroke:none" transform="matrix(0.13333333,0,0,-0.13333333,0,577.8)"/>
      <path id="path44" d="m 2346.92,3069.56 -9.46,57.3 c 49.3,27.99 80.78,59.19 114.97,92.8 3.03,111.86 -29.91,255.56 -79.83,348.16 -15.84,6.34 -37.4,9.61 -58.32,12.78 -15.4,2.33 -31.3,4.74 -46.21,8.46 l 9.95,39.83 c 13.02,-3.24 27.96,-5.51 42.41,-7.69 26.61,-4.04 54.13,-8.21 75.99,-19.09 l 5.67,-2.82 3.09,-5.53 c 57.14,-101.96 93.32,-281.38 87.99,-405.38 l -0.33,-7.88 -5.54,-5.63 c -37.8,-38.46 -85.03,-73.9 -140.38,-105.31" style="fill:#030806;fill-opacity:1;fill-rule:nonzero;stroke:none" transform="matrix(0.13333333,0,0,-0.13333333,0,577.8)"/>
      <path id="path45" d="m 1064.9,3898.22 -7.86,40.3 c 296.28,57.8 778.91,83.62 1075.84,57.52 l -3.59,-40.9 c -287.54,36.86 -765.14,11.1 -1064.39,-56.92" style="fill:#030806;fill-opacity:1;fill-rule:nonzero;stroke:none" transform="matrix(0.13333333,0,0,-0.13333333,0,577.8)"/>
      <path id="path46" d="m 1247.51,4090.61 -43.16,27.76 c 86.63,134.7 233.86,215.12 393.81,215.12 140.34,0 272.05,-62.2 361.35,-170.64 l -39.61,-32.63 c -79.53,96.57 -196.79,162.75 -321.74,162.75 -142.41,0 -273.5,-82.42 -350.65,-202.36" style="fill:#030806;fill-opacity:1;fill-rule:nonzero;stroke:none" transform="matrix(0.13333333,0,0,-0.13333333,0,577.8)"/>
      <path id="path47" d="m 1339.79,919.859 0.07,26.641 c 1.38,546.07 -5.88,974.15 -22.84,1307.58 l -1.2,23.69 87.16,9.03 10.8,74.47 182.21,19.99 5.16,-49.73 -148.17,-15.35 v -74.47 l -84.84,-8.78 c 15.89,-324.5 22.83,-720.5 21.78,-1241.45 l 905.07,55.31 c -50.69,529.61 -134.65,914.24 -270.84,1240.39 l -63.22,-7.58 -12.38,86.39 -118.16,-10.71 -4.51,49.8 156.44,15.82 15.2,-88.33 56.49,12.23 8.11,-18.99 c 145.27,-340.41 233.2,-759.83 285.08,-1318.55 l 2.38,-25.69 -1009.79,-61.711" style="fill:#030806;fill-opacity:1;fill-rule:nonzero;stroke:none" transform="matrix(0.13333333,0,0,-0.13333333,0,577.8)"/>
      <path id="path48" d="m 1279.03,3564.04 c -131.77,0 -238.97,-107.2 -238.97,-238.97 0,-131.78 107.2,-238.98 238.97,-238.98 131.77,0 238.98,107.2 238.98,238.98 0,131.77 -107.21,238.97 -238.98,238.97 z m 0,-538.54 c -157.24,0 -285.167,127.93 -285.167,285.17 0,157.24 127.927,299.56 285.167,299.56 157.24,0 285.17,-142.32 285.17,-299.56 0,-157.24 -127.93,-285.17 -285.17,-285.17" style="fill:#030806;fill-opacity:1;fill-rule:nonzero;stroke:none" transform="matrix(0.13333333,0,0,-0.13333333,0,577.8)"/>
      <path id="path49" d="m 1788.89,1984.63 c -6.82,0 -13.74,-0.33 -20.79,-1.02 -54.66,-5.3 -101.95,-31.15 -136.75,-74.74 -36.07,-45.2 -74.84,-129.71 -59.87,-278.12 l 456.55,44.27 c -26.33,196.06 -114.29,309.61 -239.14,309.61 z m -252.43,-397.46 -2.46,19.24 c -22.24,174.3 23.66,274.25 66.09,327.41 41.7,52.25 98.47,83.23 164.16,89.6 164.86,16.07 279.2,-120.14 305.99,-364.14 l 2.2,-20.14 -535.98,-51.97" style="fill:#030806;fill-opacity:1;fill-rule:nonzero;stroke:none" transform="matrix(0.13333333,0,0,-0.13333333,0,577.8)"/>
      <path id="path50" d="m 1286.42,3413.73 c -48.89,0 -88.67,-39.77 -88.67,-88.66 0,-48.89 39.78,-88.67 88.67,-88.67 48.89,0 88.67,39.78 88.67,88.67 0,48.89 -39.78,88.66 -88.67,88.66 z m 0,-218.38 c -71.53,0 -129.72,58.19 -129.72,129.72 0,71.52 58.19,129.72 129.72,129.72 71.53,0 129.73,-58.2 129.73,-129.72 0,-71.53 -58.2,-129.72 -129.73,-129.72" style="fill:#030806;fill-opacity:1;fill-rule:nonzero;stroke:none" transform="matrix(0.13333333,0,0,-0.13333333,0,577.8)"/>
      <path id="path51" d="m 1706.59,1531.58 c -31.66,0 -57.42,-25.75 -57.42,-57.41 0,-31.66 25.76,-57.42 57.42,-57.42 31.66,0 57.42,25.76 57.42,57.42 0,31.66 -25.76,57.41 -57.42,57.41 z m 0,-154.83 c -53.72,0 -97.42,43.7 -97.42,97.42 0,53.71 43.7,97.41 97.42,97.41 53.72,0 97.42,-43.7 97.42,-97.41 0,-53.72 -43.7,-97.42 -97.42,-97.42" style="fill:#030806;fill-opacity:1;fill-rule:nonzero;stroke:none" transform="matrix(0.13333333,0,0,-0.13333333,0,577.8)"/>
      <path id="path52" d="m 526.223,3287.61 c -15.66,0 -29.692,-11.07 -32.84,-27 -3.582,-18.11 8.238,-35.77 26.355,-39.35 18.114,-3.56 35.762,8.24 39.352,26.36 3.578,18.11 -8.242,35.76 -26.36,39.35 -2.179,0.43 -4.359,0.64 -6.507,0.64" style="fill:#030806;fill-opacity:1;fill-rule:nonzero;stroke:none" transform="matrix(0.13333333,0,0,-0.13333333,0,577.8)"/>
      <path id="path53" d="m 2729.78,3466.25 c -18.47,0 -33.49,-15.02 -33.49,-33.49 0,-18.46 15.02,-33.49 33.49,-33.49 18.46,0 33.48,15.03 33.48,33.49 0,18.47 -15.02,33.49 -33.48,33.49" style="fill:#030806;fill-opacity:1;fill-rule:nonzero;stroke:none" transform="matrix(0.13333333,0,0,-0.13333333,0,577.8)"/>
      <path id="path54" d="m 1471.06,651.672 c -30.19,0 -54.76,-25.762 -54.76,-57.422 0,-31.66 24.57,-57.418 54.76,-57.418 30.19,0 54.75,25.758 54.75,57.418 0,31.66 -24.56,57.422 -54.75,57.422 z m 0,-154.84 c -52.25,0 -94.76,43.707 -94.76,97.418 0,53.719 42.51,97.422 94.76,97.422 52.25,0 94.75,-43.703 94.75,-97.422 0,-53.711 -42.5,-97.418 -94.75,-97.418" style="fill:#030806;fill-opacity:1;fill-rule:nonzero;stroke:none" transform="matrix(0.13333333,0,0,-0.13333333,0,577.8)"/>
      <path id="path55" d="m 2220.14,749.879 c -2.14,0 -4.3,-0.16 -6.47,-0.469 -27.44,-4.031 -46.03,-32.801 -41.43,-64.129 4.61,-31.32 30.73,-53.422 58.13,-49.48 12.93,1.898 24.37,9.359 32.2,21.019 8.23,12.27 11.51,27.571 9.23,43.102 -4.24,28.848 -26.7,49.957 -51.66,49.957 z m 3.79,-154.547 c -44.5,0 -84.11,35.43 -91.26,84.137 -7.81,53.152 25.92,102.281 75.19,109.511 49.25,7.282 95.7,-30.101 103.51,-83.238 v 0 c 3.74,-25.39 -1.8,-50.683 -15.6,-71.222 -14.19,-21.129 -35.35,-34.739 -59.59,-38.29 -4.1,-0.609 -8.2,-0.898 -12.25,-0.898" style="fill:#030806;fill-opacity:1;fill-rule:nonzero;stroke:none" transform="matrix(0.13333333,0,0,-0.13333333,0,577.8)"/>
      <path id="path56" d="m 1917.94,1546.68 c -31.66,0 -57.41,-25.75 -57.41,-57.41 0,-31.66 25.75,-57.43 57.41,-57.43 31.66,0 57.42,25.77 57.42,57.43 0,31.66 -25.76,57.41 -57.42,57.41 z m 0,-154.84 c -53.71,0 -97.41,43.71 -97.41,97.43 0,53.71 43.7,97.41 97.41,97.41 53.72,0 97.42,-43.7 97.42,-97.41 0,-53.72 -43.7,-97.43 -97.42,-97.43" style="fill:#030806;fill-opacity:1;fill-rule:nonzero;stroke:none" transform="matrix(0.13333333,0,0,-0.13333333,0,577.8)"/>
      <path id="path57" d="m 1655.15,1616.36 c -0.67,5.94 -1.01,12.02 -1.01,18.03 0,87.49 60.22,148.67 147.7,148.67 87.49,0 141.48,-61.18 141.48,-148.67 h -22.81 c 0,65.43 -53.24,118.67 -118.67,118.67 -65.43,0 -118.66,-53.24 -118.66,-118.67 0,-4.52 0.26,-9.07 0.76,-13.54 l -28.79,-4.49" style="fill:#030806;fill-opacity:1;fill-rule:nonzero;stroke:none" transform="matrix(0.13333333,0,0,-0.13333333,0,577.8)"/>
      <path id="path58" d="m 1994.26,3613.18 c -131.77,0 -238.97,-107.2 -238.97,-238.97 0,-131.77 107.2,-238.98 238.97,-238.98 131.77,0 238.98,107.21 238.98,238.98 0,131.77 -107.21,238.97 -238.98,238.97 z m 0,-538.54 c -157.24,0 -285.17,127.93 -285.17,285.17 0,157.23 127.93,299.56 285.17,299.56 157.24,0 285.17,-142.33 285.17,-299.56 0,-157.24 -127.93,-285.17 -285.17,-285.17" style="fill:#030806;fill-opacity:1;fill-rule:nonzero;stroke:none" transform="matrix(0.13333333,0,0,-0.13333333,0,577.8)"/>
      <path id="path59" d="m 1986.87,3462.88 c -48.89,0 -88.67,-39.78 -88.67,-88.67 0,-48.89 39.78,-88.67 88.67,-88.67 48.89,0 88.67,39.78 88.67,88.67 0,48.89 -39.78,88.67 -88.67,88.67 z m 0,-218.4 c -71.53,0 -129.72,58.19 -129.72,129.73 0,71.53 58.19,129.72 129.72,129.72 71.53,0 129.72,-58.19 129.72,-129.72 0,-71.54 -58.19,-129.73 -129.72,-129.73" style="fill:#030806;fill-opacity:1;fill-rule:nonzero;stroke:none" transform="matrix(0.13333333,0,0,-0.13333333,0,577.8)"/>
      <path id="path60" d="m 1386.66,2918.39 c 26.75,-120.76 145.66,-203.71 284.57,-195.25 155.81,9.43 285.85,130.61 280.67,260.43 -181.18,-1.6 -371.15,-23.5 -565.24,-65.18 z m 265.16,-236.9 c -158.04,0 -289.04,104.35 -309.19,249.94 l -2.59,18.76 18.5,4.1 c 210.42,46.52 416.36,70.22 612.11,70.43 l 18.06,0.02 2.32,-17.91 c 0.73,-5.6 1.31,-11.22 1.66,-16.92 9.42,-155.79 -136.65,-296.72 -318.98,-307.75 -7.34,-0.45 -14.66,-0.67 -21.89,-0.67" style="fill:#030806;fill-opacity:1;fill-rule:nonzero;stroke:none" transform="matrix(0.13333333,0,0,-0.13333333,0,577.8)"/>
      <path id="path61" d="m 1253.96,1736.7 c -446.901,17.36 -689.241,279.42 -700.245,289.78 l -22.559,21.25 25.532,17.55 c 137.695,94.69 173.964,270.98 174.468,272.6 l 10.032,32.26 43.191,-33.52 c 288.911,-196.8 434.031,-227.02 460.181,-231.07 l -7.66,-49.42 c -38.15,5.93 -181.15,39.26 -454.216,221.34 -21.164,-51.48 -73.207,-155.95 -171.664,-234.14 72.003,-58.13 308.3,-227.03 646.26,-249.54 l -3.32,-57.09" style="fill:#030806;fill-opacity:1;fill-rule:nonzero;stroke:none" transform="matrix(0.13333333,0,0,-0.13333333,0,577.8)"/>
      <path id="path62" d="m 2287.56,1936.35 -10.72,63.23 c 380.41,83.53 526.23,308.91 575.91,387.27 -91.03,50.33 -154.48,140.03 -184.35,189.35 -210.17,-269.47 -449.55,-352.13 -462.08,-357.38 l -19.35,46.1 c 3.06,1.29 261.18,92.21 464.3,371.64 l 24.35,33.51 18.3,-37.17 c 0.77,-1.56 78.46,-156.96 204.25,-212.87 l 24.4,-10.85 -12.43,-23.63 c -7.95,-15.12 -153.01,-346.1 -622.58,-449.2" style="fill:#030806;fill-opacity:1;fill-rule:nonzero;stroke:none" transform="matrix(0.13333333,0,0,-0.13333333,0,577.8)"/>
      <path id="path63" d="m 2685.92,1312.99 c -88.48,0 -194.12,5.88 -318.36,40.96 l 19.81,61.54 c 234.48,-66.22 396.44,-48.51 490.97,-22 72.7,20.4 117.73,48.97 137.69,63.79 -32.29,98.09 -32.04,217.78 -29.16,279.08 -334.84,-124.59 -640.94,-74.41 -654.26,-72.12 l 8.42,49.28 c 3.26,-0.56 328.74,-53.62 664.01,83.6 l 44.2,17.9 -9.86,-43.58 c -0.19,-1.85 -18.39,-187.75 29.45,-313.5 l 5.84,-15.36 -11.78,-11.45 c -6.22,-6.05 -125.22,-118.13 -376.97,-118.14" style="fill:#030806;fill-opacity:1;fill-rule:nonzero;stroke:none" transform="matrix(0.13333333,0,0,-0.13333333,0,577.8)"/>
      <path id="path64" d="m 824.52,1100.99 c -64.715,0 -104.059,6.49 -108.204,7.21 l -37.203,12.18 11.289,28.57 c 61.024,154.4 -22.058,318.16 -22.902,319.8 l -24.57,47.49 52.179,-11.57 c 166.875,-37.09 361.451,-6.13 549.111,83.71 l 14.44,-48.19 c -180.73,-86.52 -362.113,-118.34 -527.754,-93.05 21.86,-59.73 50.446,-171.18 16.481,-286.14 28.797,-2.48 77.379,-4.68 139.828,-0.24 95.133,6.79 242.905,30.92 406.665,107.31 l 28.07,-52.25 C 1115.54,1119.54 933.848,1100.99 824.52,1100.99" style="fill:#030806;fill-opacity:1;fill-rule:nonzero;stroke:none" transform="matrix(0.13333333,0,0,-0.13333333,0,577.8)"/>
      <path id="path65" d="m 1368.29,214.98 c -1.37,77.922 9.6,202.668 17.62,293.77 l 2.99,42.551 49.05,-21.5 -2.23,-25.442 c -7.92,-89.988 -18.76,-213.218 -17.44,-288.5 l -49.99,-0.879" style="fill:#030806;fill-opacity:1;fill-rule:nonzero;stroke:none" transform="matrix(0.13333333,0,0,-0.13333333,0,577.8)"/>
      <path id="path66" d="m 1449.78,647.82 -49.68,5.59 c 17.4,154.922 38.19,280.301 44.16,315.039 l 49.27,-8.457 c -5.9,-34.402 -26.49,-158.582 -43.75,-312.172" style="fill:#030806;fill-opacity:1;fill-rule:nonzero;stroke:none" transform="matrix(0.13333333,0,0,-0.13333333,0,577.8)"/>
      <path id="path67" d="m 1766.42,122.66 c -116.95,393.41 -86.4,855.32 -86.08,859.942 l 74.47,-3.481 c -0.32,-4.531 -53.99,-471.332 60.34,-855.871 l -48.73,-0.59" style="fill:#030806;fill-opacity:1;fill-rule:nonzero;stroke:none" transform="matrix(0.13333333,0,0,-0.13333333,0,577.8)"/>
      <path id="path68" d="M 2185.19,87.1211 C 2015.32,235.063 1893.25,958.582 1888.49,990.121 l 64.92,15.739 c 0.28,-1.91 22.06,-181.68 70.7,-387.11 80.13,-338.441 149.68,-455.41 193.92,-493.941 l -32.84,-37.6879" style="fill:#030806;fill-opacity:1;fill-rule:nonzero;stroke:none" transform="matrix(0.13333333,0,0,-0.13333333,0,577.8)"/>
      <path id="path69" d="m 2397.61,384.012 c -51.59,76.097 -97.62,159.07 -136.8,246.629 l 41.73,27.91 c 38,-84.903 86.5,-172.789 136.46,-246.469 l -41.39,-28.07" style="fill:#030806;fill-opacity:1;fill-rule:nonzero;stroke:none" transform="matrix(0.13333333,0,0,-0.13333333,0,577.8)"/>
      <path id="path70" d="m 2211.69,752.719 c -52.78,147.023 -67.41,266.471 -68.31,271.941 l 49.33,8.14 c 0.21,-1.29 14.87,-120.628 66.04,-263.179 l -47.06,-16.902" style="fill:#030806;fill-opacity:1;fill-rule:nonzero;stroke:none" transform="matrix(0.13333333,0,0,-0.13333333,0,577.8)"/>
      <path id="path71" d="m 575.656,3246.87 -4.633,25.82 c 179.258,36.68 210.364,44.13 213.68,44.31 l 2.156,-41.01 c -0.793,-0.04 -35.582,6.81 -211.203,-29.12" style="fill:#030806;fill-opacity:1;fill-rule:nonzero;stroke:none" transform="matrix(0.13333333,0,0,-0.13333333,0,577.8)"/>
      <path id="path72" d="m 2466.35,3392.02 -4.42,40.82 c 1.75,0.19 133.27,-0.93 214.64,4.5 l 2.74,-26.57 c -80.54,-5.37 -211.22,-18.56 -212.96,-18.75" style="fill:#030806;fill-opacity:1;fill-rule:nonzero;stroke:none" transform="matrix(0.13333333,0,0,-0.13333333,0,577.8)"/>
      <path id="path73" d="m 1685.65,2252.05 c -78.36,0 -96.39,42.15 -98.36,47.49 l -1.32,3.59 0.1,3.83 c 1.57,62.54 -27.45,169.47 -27.74,170.55 l 38.58,10.55 c 1.23,-4.49 29.31,-108 29.22,-176.55 4.85,-6.14 24.82,-25 85.13,-17.84 62.82,7.44 81.1,28.92 84.88,34.64 -2.21,112.19 11.2,189.95 11.78,193.24 l 39.4,-6.91 c -0.14,-0.78 -13.65,-79.49 -11.1,-189.83 l 0.07,-2.98 -0.8,-2.87 c -1.5,-5.38 -17.64,-52.94 -119.53,-65.02 -10.98,-1.3 -21.07,-1.89 -30.31,-1.89" style="fill:#030806;fill-opacity:1;fill-rule:nonzero;stroke:none" transform="matrix(0.13333333,0,0,-0.13333333,0,577.8)"/>
      <path id="path74" d="m 1739.38,2172.2 -6.61,1.02 c -140,21.54 -295.45,115.88 -302.77,119.73 l 18.64,35.39 c 1.7,-0.9 151.09,-92.04 283.42,-114.49 23.37,13.65 131.95,73.61 207.63,167.83 l 22.08,-20.39 c -92.54,-115.22 -211.85,-183.44 -216.5,-185.94 l -5.89,-3.15" style="fill:#030806;fill-opacity:1;fill-rule:nonzero;stroke:none" transform="matrix(0.13333333,0,0,-0.13333333,0,577.8)"/>
      <path id="path75" d="m 1743.8,2083.53 -6.08,0.84 c -194.11,26.97 -331.42,147.54 -337.02,151.53 l 33.3,33.29 c 1.28,-0.9 122.29,-117.56 302.94,-144.29 25.02,13.41 150.82,89.94 222.78,191.52 l 32.64,-23.12 c -87.48,-123.5 -237.48,-204.32 -243.06,-207.06 l -5.5,-2.71" style="fill:#030806;fill-opacity:1;fill-rule:nonzero;stroke:none" transform="matrix(0.13333333,0,0,-0.13333333,0,577.8)"/>
      <path id="path76" d="m 1330.98,1671.73 c -24.34,0 -47.66,9.3 -66.29,26.58 -20,18.55 -32.12,44.08 -34.12,71.87 l -17.43,264.83 c -2,27.8 6.35,54.79 23.5,76.01 17.47,21.63 41.87,34.59 68.68,36.52 l 49.16,3.53 2.87,-39.9 -49.16,-3.53 c -15.65,-1.13 -30.01,-8.85 -40.44,-21.75 -10.75,-13.31 -15.98,-30.36 -14.71,-48.02 L 1270.47,1795 c 1.27,-17.66 8.87,-33.78 21.42,-45.42 12.17,-11.29 27.56,-16.87 43.12,-15.75 l 31.87,2.28 2.86,-61.85 -14.12,-6.73 c -2.31,-0.17 -22.35,4.2 -24.64,4.2" style="fill:#030806;fill-opacity:1;fill-rule:nonzero;stroke:none" transform="matrix(0.13333333,0,0,-0.13333333,0,577.8)"/>
      <path id="path77" d="m 2183.15,1829.17 -11.14,38.42 47.34,13.73 c 15.06,4.36 27.48,14.92 34.98,29.72 7.74,15.27 9.29,33.03 4.35,50.02 l -67.84,233.87 c -4.92,17 -15.73,31.18 -30.44,39.94 -14.27,8.5 -30.42,10.76 -45.47,6.39 l -30.68,-8.9 -11.14,38.42 30.68,8.9 c 25.82,7.48 53.19,3.78 77.08,-10.44 23.44,-13.97 40.63,-36.4 48.39,-63.17 l 67.84,-233.85 c 7.77,-26.77 5.25,-54.92 -7.08,-79.25 -12.57,-24.8 -33.71,-42.58 -59.53,-50.07 l -47.34,-13.73" style="fill:#030806;fill-opacity:1;fill-rule:nonzero;stroke:none" transform="matrix(0.13333333,0,0,-0.13333333,0,577.8)"/>
      <path id="path78" d="m 2272.99,1310.99 -6.67,39.44 48.6,8.22 c 32.61,5.53 54.24,39.04 48.2,74.73 l -40.62,240.1 c -6.04,35.68 -37.47,60.2 -70.11,54.71 l -31.49,-5.33 -6.68,39.43 31.5,5.34 c 54.44,9.17 106.5,-30.05 116.22,-87.48 l 40.62,-240.09 c 9.72,-57.43 -26.6,-111.64 -80.97,-120.84 l -48.6,-8.23" style="fill:#030806;fill-opacity:1;fill-rule:nonzero;stroke:none" transform="matrix(0.13333333,0,0,-0.13333333,0,577.8)"/>
      <path id="path79" d="m 1364.94,1153.24 c -49.31,0 -92.94,38.55 -100.46,91.46 l -34.29,274.93 c -8.19,57.65 29.54,110.89 84.13,118.66 l 48.81,6.93 5.62,-39.61 -48.8,-6.93 c -32.74,-4.66 -55.25,-37.6 -50.16,-73.43 l 34.29,-241.09 c 5.09,-35.82 35.84,-61.19 68.64,-56.52 l 5.63,-39.61 c -4.5,-0.64 -8.98,-34.79 -13.41,-34.79" style="fill:#030806;fill-opacity:1;fill-rule:nonzero;stroke:none" transform="matrix(0.13333333,0,0,-0.13333333,0,577.8)"/>
      <path id="path80" d="m 1796.71,137.172 c 90.14,-42.422 -153,-84.5236 -333.1,-84.5236 -180.1,0 -334.05,0 -328.75,63.6326 0,76.141 146,137.86 326.1,137.86 180.1,0 330.45,-85.161 335.75,-116.969" style="fill:#030806;fill-opacity:1;fill-rule:nonzero;stroke:none" transform="matrix(0.13333333,0,0,-0.13333333,0,577.8)"/>
      <path id="path81" d="m 2190.69,114.012 c -55.7,-78.5823 157.86,25.488 309.7,106.09 151.84,80.597 281.64,149.5 246.72,204.488 -36.44,68.64 -189.07,58.949 -340.91,-21.641 C 2254.36,322.352 2179.93,145.07 2190.69,114.012" style="fill:#030806;fill-opacity:1;fill-rule:nonzero;stroke:none" transform="matrix(0.13333333,0,0,-0.13333333,0,577.8)"/>
      <path id="path82" d="m 594.336,699.449 c -0.727,0 -1.457,0.031 -2.18,0.09 -106.039,-2.84 -154.043,86.652 -156.062,90.492 l -0.735,1.578 c -56.425,135.411 25.344,230.281 47.86,252.901 -0.301,4.11 -1.117,11.35 -3.207,23.63 l 39.156,6.66 c 5.629,-33.04 6.734,-48.41 -6.262,-56.84 h -0.144 c -12.973,-12.04 -90.348,-90.64 -41.133,-210.151 4.125,-7.368 40,-67.52 113.07,-68.61 0.387,2.723 0.707,6.653 0.707,12.18 0,26.312 -16.254,72.691 -22.515,88.363 l -3.313,8.27 3.992,7.98 c 3.887,7.778 38.996,76.738 73.653,102.738 l 6.496,4.872 8.043,-1.082 c 2.871,-0.379 70.593,-10.008 98.906,-66.641 15.898,-31.789 25.078,-63.309 29.75,-82.578 14.074,7.801 46.879,53.828 28.855,133.109 -17.609,77.48 -44.418,89.84 -126.519,117.2 l -3.981,1.33 -3.101,2.82 c -1.965,1.78 -48.399,44.55 -65.664,109.29 -15.824,59.36 -95.039,384.06 -95.836,387.33 l -13.41,61.88 c -4.559,28.65 -5.321,43.03 7.312,51.12 l 1.449,0.93 c 14.7,12.46 91.45,84.9 43.153,202.16 -4.121,7.37 -39.996,67.52 -113.071,68.61 -0.285,-2.02 -0.531,-4.71 -0.644,-8.22 25.582,-60.34 37.25,-129.21 37.738,-132.17 l 1.215,-7.27 -3.82,-6.31 c -1.692,-2.78 -41.715,-68.39 -76.305,-94.32 l -10.605,-7.96 -11.411,6.75 c -3.23,1.91 -79.308,47.32 -105.554,99.82 -15.899,31.78 -25.078,63.3 -29.75,82.57 -14.078,-7.8 -46.887,-53.8 -28.86,-133.12 17.606,-77.46 44.422,-89.81 126.524,-117.18 l 3.98,-1.33 3.102,-2.81 c 0.93,-0.86 23.051,-21.14 42.461,-54.4 l 1.168,-2.34 2.668,-6.39 c 6.269,-9.28 12.929,-25.45 22.047,-52.79 l -37.164,-13.94 -23.672,56.55 c -12.289,20.76 -25.782,35.43 -31.477,41.22 -82.172,27.56 -126.391,47.92 -148.367,144.61 -21.477,94.5 16.531,160.82 50.379,177.74 13.687,6.83 29.387,12.79 42.004,5 5.75,-3.55 9.59,-9.5 10.476,-15.96 0.875,-4.89 8.992,-47.65 30,-89.67 14.559,-29.11 54.379,-59.83 78.285,-75.8 19.258,18.9 41.071,50.6 52.168,68.04 -3.714,19.3 -15.269,73.65 -35.343,119.54 l -1.66,3.81 v 4.15 c 0,15.29 1.632,36.79 15.781,46.98 5.14,3.71 11.293,5.35 17.179,4.86 105.946,2.84 154.043,-86.64 156.067,-90.49 l 0.734,-1.58 c 56.196,-134.85 -26.949,-224.06 -51.25,-246.32 0.262,-3.43 0.871,-8.88 2.203,-17.31 l 12.969,-59.73 c 0.684,-2.78 79.797,-327.07 95.512,-386.02 11.969,-44.88 41.988,-78.02 51.265,-87.45 82.168,-27.55 126.375,-47.91 148.356,-144.61 21.473,-94.48 -16.527,-160.808 -50.371,-177.738 -13.684,-6.84 -29.387,-12.793 -42.008,-5.012 -5.75,3.559 -9.598,9.512 -10.477,15.961 -0.882,4.918 -9,47.661 -30.003,89.668 -14.09,28.18 -45.618,39.43 -60.528,43.289 -19.074,-18.406 -40.715,-55.156 -51.566,-75.539 6.883,-18.679 22.07,-63.449 22.07,-94.48 0,-15.289 -1.637,-36.789 -15.781,-46.977 -4.512,-3.254 -9.793,-4.953 -15.004,-4.953" style="fill:#030806;fill-opacity:1;fill-rule:nonzero;stroke:none" transform="matrix(0.13333333,0,0,-0.13333333,0,577.8)"/>
      <path id="path83" d="m 2631.52,2994.91 v 0 z m 28.79,-68.56 -17.7,11.05 c -39.09,24.43 -44.21,34.67 -45.89,38.03 -4.35,8.7 -2.13,17.8 4.13,33.74 19.44,49.47 96.56,198.81 192.66,234.85 105.01,39.37 364.69,44 375.7,44.17 l 7.86,0.13 5.84,-5.26 c 1.24,-1.1 32.68,-28.28 62.14,-10.59 48.23,28.94 71.01,32.23 162.36,23.54 l 17.75,-1.7 5.01,-259.25 -18.94,-1.35 c -0.66,-0.04 -67.24,-4.73 -130.14,-4.73 h -8.61 l -5.92,6.26 c -22.53,23.82 -68.32,31.71 -94.21,22.87 -4.59,-1.56 -12.38,-5.05 -12.95,-10.72 -4.52,-45.13 -8.48,-102.89 -8.48,-113.87 h -40 c 0,14.84 4.54,76.52 8.68,117.84 2.04,20.4 16.55,36.66 39.83,44.6 35.86,12.25 93.65,4.98 129.7,-26.95 38.81,0.24 77.93,2.14 100.31,3.42 l -3.57,185.36 c -73.93,6.28 -85.83,1.02 -120.24,-19.61 -44.26,-26.57 -86.77,-1.82 -102.83,9.86 -42.56,-1.02 -265.82,-7.94 -355.24,-41.47 -81.81,-30.68 -157.43,-177.09 -171.19,-216.08 2.84,-2.3 16.05,-17.62 20.29,-20.62 23.83,35.38 73.61,123.33 153.17,137.8 46.51,8.45 89.22,-10.91 123.59,-55.96 24.25,-31.81 35.86,-65.56 36.34,-66.99 l -37.87,-12.88 c -0.38,1.11 -38.68,110.35 -114.91,96.47 -83.89,-15.25 -143.22,-142.1 -143.84,-143.19 l -12.83,1.23" style="fill:#030806;fill-opacity:1;fill-rule:nonzero;stroke:none" transform="matrix(0.13333333,0,0,-0.13333333,0,577.8)"/>
      <path id="path84" d="m 334.254,2423.74 c -38.629,27.59 -87.649,32.61 -127.18,39.83 -46.168,8.43 -89.769,16.38 -113.5232,53.33 l -1.6641,2.59 -0.8086,2.97 c -16.6953,61.41 17.1989,96.78 37.4489,106.9 l 2.789,1.14 c 146.938,47.52 405.317,-98.56 417.672,-105.35 l -19.269,-35.05 c -2.867,1.57 -252.848,143.17 -384.262,102.92 -5.238,-3.28 -25.652,-18.78 -16.582,-56.91 15.082,-20.36 46.277,-26.06 85.383,-33.2 43.648,-7.97 85.164,-20.22 131.066,-53.01 l -11.07,-26.16" style="fill:#030806;fill-opacity:1;fill-rule:nonzero;stroke:none" transform="matrix(0.13333333,0,0,-0.13333333,0,577.8)"/>
      <path id="path85" d="m 289.164,2293.66 c -2.707,-5.78 -19.625,-7.46 -25.562,-5.11 -40.008,15.81 -82.645,7.88 -121.731,9.57 -50.7616,2.19 -98.703,4.27 -128.7343,36.26 l -1.7461,1.87 -1.2265,2.24 c -31.3711,57.52 19.6914,112.65 21.8789,114.97 l 3.332,3.52 4.5742,1.61 c 54.2461,19.08 168.9688,14.53 287.1958,-18.29 4.398,-1.22 7.992,-4.53 8.992,-8.99 v 0 c 1.898,-8.45 -0.535,-12.17 -9.016,-10.4 -113.75,23.79 -217.543,15.37 -265.0741,2.64 -2.6406,-0.71 -4.8399,-2.29 -6.4297,-4.52 -8.0274,-11.2 -21.1094,-34.23 -12.6914,-56.29 0.707,-1.85 1.9219,-3.54 3.4492,-4.8 19.9766,-16.52 55.98,-18.07 97.227,-19.86 42.695,-1.85 84.328,-7.71 130.726,-26.39 6.391,-2.57 15.758,-6.08 12.836,-12.31 l 2,-5.72" style="fill:#030806;fill-opacity:1;fill-rule:nonzero;stroke:none" transform="matrix(0.13333333,0,0,-0.13333333,0,577.8)"/>
      <path id="path86" d="m 103.602,2117.98 c -14.059,0 -28.1762,3.26 -42.2856,11.75 l -2.1914,1.31 -1.7891,1.83 c -44.9296,45.86 -14.4804,111.31 -13.4179,113.88 l 10.9062,8.18 c 64.8208,45.7 229.2268,79.63 247.9768,38.73 v -5.11 c -73.168,-3.43 -172.215,-30.15 -229.6916,-66.84 -3.1016,-11.14 -7.7461,-37.94 11.0234,-58.95 19.3902,-10.26 40.4652,-2.86 75.1172,10.77 36.621,14.42 88.465,28.18 146.488,18.68 L 293,2156.91 c -47.113,7.71 -85.375,-7.33 -119.102,-20.59 -23.046,-9.08 -46.585,-18.34 -70.296,-18.34" style="fill:#030806;fill-opacity:1;fill-rule:nonzero;stroke:none" transform="matrix(0.13333333,0,0,-0.13333333,0,577.8)"/>
      <path id="path87" d="m 500.531,2069.05 c -2.203,0 -30.636,9.03 -32.64,9.21 -48.297,4.39 -171.68,73.14 -185.594,80.96 l 19.609,34.86 c 49.668,-27.93 139.633,-73.25 169.606,-75.98 37.336,-3.7 152.043,50.31 202.297,197.19 48.621,142.14 -32.778,223.55 -36.266,226.94 l -6.051,5.89 -0.062,8.5 c 0,3.06 0.445,75.65 39.09,157.25 8.371,17.67 6.824,25.78 5.347,26.59 -9.597,5.24 -74.238,12.66 -96.929,-23.64 -43.571,-69.72 -48.95,-135.14 -15.997,-194.46 l 9.954,-17.92 -1.215,-10.73 c -3.117,-1.67 -47.117,-10.47 -133.426,-162 l 0.242,-3.83 c 16.613,96.37 60.266,145.21 88.684,165.83 -30.977,68.3 -30.082,167.63 17.843,244.31 29.872,47.79 115.786,56.27 150.04,37.54 9.117,-4.99 36.902,-25.41 11.609,-78.81 -27.977,-59.07 -33.75,-113.2 -34.938,-132.58 22.106,-25.28 115.559,-126.61 66.243,-270.77 -54.938,-160.59 -179.454,-224.35 -237.446,-224.35" style="fill:#030806;fill-opacity:1;fill-rule:nonzero;stroke:none" transform="matrix(0.13333333,0,0,-0.13333333,0,577.8)"/>
      <path id="path88" d="m 303.23,2240.39 -7.164,33.75 c -24.308,109.38 76.969,214.71 109.379,214.71 5.203,0 5.969,1.85 6.797,3.24 -0.234,-0.4 -0.39,-0.75 -0.515,-1.04 l -3.133,-3.32 c -1.766,-4 -4.817,-8.08 -11.5,-17.03 -25.653,-34.35 -93.797,-125.59 -93.864,-230.31" style="fill:#030806;fill-opacity:1;fill-rule:nonzero;stroke:none" transform="matrix(0.13333333,0,0,-0.13333333,0,577.8)"/>
      <path id="path89" d="m 652.492,1107.64 -31.047,123.24 c 12.493,4.58 21.153,15.28 26.485,32.71 19.929,65.13 -16.215,185.8 -41.899,221.37 -11.636,16.11 -19.816,21.87 -27.73,27.45 -21.055,14.83 -32.399,28.11 -45.379,85.61 -4.293,22.28 -13.445,74.66 -8.617,93.97 l 40.34,-10.09 c -1.661,-8.4 3.289,-45.79 8.968,-75.39 10.742,-47.51 17.098,-51.98 28.633,-60.11 9.195,-6.47 68.77,-52.95 84.481,-74.71 31.296,-43.34 41.882,-225.43 17.703,-304.47 -11.551,-37.74 -34.617,-53.23 -51.938,-59.58" style="fill:#030806;fill-opacity:1;fill-rule:nonzero;stroke:none" transform="matrix(0.13333333,0,0,-0.13333333,0,577.8)"/>
      <path id="path90" d="m 384.887,1142.13 -36.856,23.81 c 0.004,0 129.953,80.14 151.375,92.4 1.77,1 10.016,5.9 11.914,12.1 4.778,15.58 9.797,19.6 -14.152,65.32 -17.418,40.28 -96.137,-13.44 -128.453,-29.39 -18.402,-9.09 -42.195,-20.64 -55.52,-26.13 l -7.621,28.3 c 11.93,4.91 25.844,20.85 43.543,29.59 76.738,37.88 149.219,73.67 174.328,31.77 24.453,-40.75 33.379,-80.58 25.129,-112.15 -4.484,-17.17 -14.094,-30.7 -27.054,-38.11 -21.446,-12.25 -136.633,-77.51 -136.633,-77.51" style="fill:#030806;fill-opacity:1;fill-rule:nonzero;stroke:none" transform="matrix(0.13333333,0,0,-0.13333333,0,577.8)"/>
      <path id="path91" d="m 378.25,1130.62 c 2.953,-14.27 9.922,-34.92 23.961,-46.64 9.508,-7.92 21.391,-11.17 36.418,-9.87 33.73,10.53 89.891,29.35 103.664,37.22 19.906,8.95 23.082,29.07 2.965,72.48 -14.824,27.53 -120.578,-33.18 -150.61,-46.15 -5.828,-2.51 -11.324,-4.89 -16.398,-7.04 z m 54.008,-101.36 c -22.711,0 -42.457,6.95 -58.84,20.71 -27.777,23.34 -37.051,60.25 -40.035,78.59 -73.688,55.39 -74.153,124.45 -61.578,161.77 -19.711,43.79 -23.645,81.35 -12.051,114.59 18.836,54.02 73.332,79.95 117.125,100.8 13.641,6.48 26.519,12.61 35.937,18.56 l 9.375,1.28 4.25,2.13 c 34.016,14.22 62.801,10.5 75.567,-10.78 24.453,-40.76 33.375,-80.58 25.129,-112.15 -4.489,-17.17 -14.094,-30.7 -27.047,-38.11 -21.602,-12.34 -105.965,-45.33 -109.606,-47.22 l -21.949,28.17 c 0.887,0.46 88.645,45.86 109.442,57.75 1.757,1 10.582,6.63 12.218,12.9 1.852,7.09 10.785,9.8 -13.812,52.06 -9.563,29.75 -45.883,12.6 -45.883,12.6 -10.324,-5.94 -22.113,-11.56 -34.477,-17.44 -38.187,-18.18 -81.48,-38.78 -94.191,-75.22 -8.148,-23.36 -3.352,-53.44 14.258,-89.39 l 4.762,-9.72 -4.696,-9.75 c -1.09,-2.39 -26.355,-59.76 38.059,-112.54 6.68,2.77 14.379,6.1 22.769,9.72 93.899,40.54 167.86,68.54 194.61,30.33 19.574,-27.96 23.562,-70.49 17.386,-98.04 -4.062,-18.14 -12.562,-31.36 -24.582,-38.23 -22.898,-13.07 -105.375,-38.85 -114.707,-41.74 l -4.14,-0.87 c -4.539,-0.5 -8.969,-0.76 -13.293,-0.76" style="fill:#030806;fill-opacity:1;fill-rule:nonzero;stroke:none" transform="matrix(0.13333333,0,0,-0.13333333,0,577.8)"/>
      <path id="path92" d="m 2939.91,2405.75 c -36.82,0 -54.51,13.91 -78.42,22.82 -68.65,25.6 -138.64,142.58 -141.1,146.76 -31.18,54.52 -34.39,171.39 31.61,223.69 l 4.92,3.9 c 55.82,44.19 140.19,110.97 158.65,167.48 l 2.05,6.28 5.37,3.85 c 18.81,13.49 66.21,24.24 111.11,-31.58 16.61,-20.66 23.06,-45.32 18.62,-71.34 -8.08,-47.49 -50.75,-89.41 -77.46,-106 -34.54,-21.47 -66.77,-45.98 -67.09,-46.23 l -2.63,7.18 c 1.38,1.05 12.17,50.83 48.41,73.35 21.18,13.16 53.46,46.2 58.96,78.48 2.51,14.7 -0.86,27.54 -10.27,39.25 -24.14,30.01 -43.31,28.77 -51.64,26.11 -26.11,-65.37 -108.33,-130.46 -169.01,-178.5 l -4.91,-3.88 c -50.42,-39.96 -42.63,-135.29 -21.73,-171.81 14.63,-24.93 62.88,-93.84 108.64,-110.91 19.75,-7.36 47.9,-10.99 80.52,-10.87 l 0.31,-40.38 c -1.16,-0.01 -3.77,-27.65 -4.91,-27.65" style="fill:#030806;fill-opacity:1;fill-rule:nonzero;stroke:none" transform="matrix(0.13333333,0,0,-0.13333333,0,577.8)"/>
      <path id="path93" d="m 3211.72,2735.92 -8.38,39.11 c 1.63,0.35 5.96,1.28 9.65,10.81 8.76,22.6 1.86,58.84 -3.68,66.6 -11.93,16.69 -70.03,68.18 -117.88,65.83 -20.13,-1.01 -24.83,-10.33 -26.36,-13.4 -6.17,-12.25 -2.99,-33.29 7.37,-49.2 2.55,-3.26 16.47,-20.78 29.46,-32.05 l -26.19,-30.22 c -17.39,15.07 -34.68,37.48 -35.4,38.42 l -0.78,1.09 c -15.73,23.6 -24.99,60.56 -10.2,89.95 10.78,21.4 32.12,33.96 60.11,35.36 64.13,3.21 134.12,-56.92 152.42,-82.53 14.34,-20.08 21.29,-71.08 8.42,-104.31 -7.41,-19.12 -21.1,-31.72 -38.56,-35.46" style="fill:#030806;fill-opacity:1;fill-rule:nonzero;stroke:none" transform="matrix(0.13333333,0,0,-0.13333333,0,577.8)"/>
      <path id="path94" d="m 3183.15,2613.12 -8.38,39.11 c 9.98,2.14 16.52,14.31 19.53,21.38 9.6,22.5 7.72,46.05 4.83,50.71 -11.14,15.61 -83.86,64.84 -133.4,62.58 -10.81,-0.54 -17.73,-4.95 -22.44,-14.3 -10.3,-20.47 -5.19,-55 6.28,-72.2 l 1.85,-3.23 c 2.6,-3.09 18.73,-18.96 81.55,-29.1 l -6.37,-39.49 c -83.1,13.4 -105.47,38.38 -111.46,51.42 -17.1,27.24 -24.79,76.4 -7.57,110.59 11.14,22.13 31.09,35.01 56.17,36.26 65.12,3.24 150.54,-54.92 168,-79.35 14.37,-20.14 11.15,-59.33 0.82,-85.98 -10.31,-26.6 -27.85,-43.78 -49.41,-48.4" style="fill:#030806;fill-opacity:1;fill-rule:nonzero;stroke:none" transform="matrix(0.13333333,0,0,-0.13333333,0,577.8)"/>
      <path id="path95" d="m 3169.83,2608.05 v 0 z m -46,-147.34 -1.17,39.98 c 22.84,0.67 38.16,9.48 46.84,26.93 14.69,29.54 5.78,71.32 0.7,79.86 -14.45,10.83 -86.33,38.93 -123.88,26.75 -11.07,-3.58 -17.88,-11.07 -20.28,-22.26 -3.14,-14.7 2.14,-32.68 12.28,-41.84 l 1.48,-1.48 c 1,-1.05 42.85,-30.11 106.49,-23.94 l -17.62,-41.64 c -78.82,-7.66 -111.11,31.16 -117.71,37.88 -20.19,18.65 -30.06,51.17 -24.04,79.37 5.36,25.07 22.51,44.01 47.07,51.97 52.91,17.15 141.31,-16.66 162.92,-34.97 18.32,-15.5 28.33,-72.95 13.48,-115.42 -13.36,-38.21 -44.1,-59.94 -86.56,-61.19" style="fill:#030806;fill-opacity:1;fill-rule:nonzero;stroke:none" transform="matrix(0.13333333,0,0,-0.13333333,0,577.8)"/>
      <path id="path96" d="m 3148.31,1432.7 c -9.35,0 -17.6,1.15 -24.72,3.91 -58.26,16.01 -84.62,141.3 -89.35,166.49 l -0.26,1.88 c -0.9,9.68 -2.27,20.29 -3.71,31.48 -7.95,61.73 -18.83,146.28 34.44,195.67 l 4.5,4.18 c 50.79,47.07 127.55,118.19 144.49,178.92 l 1.69,6.08 4.84,4.05 c 1.84,1.56 18.81,15.13 43.96,11.61 22.55,-3.06 43.39,-18.31 61.94,-45.3 22.01,-32.01 23.67,-70.68 4.79,-111.86 -15.54,-33.91 -41.2,-60.6 -58.46,-73.16 -31.33,-22.78 -60.57,-48.83 -60.87,-49.08 l -27.13,30.39 c 1.25,1.11 31.01,27.62 64.04,51.64 22.67,16.5 77.55,80.28 44.06,128.99 -14.35,20.88 -26,26.71 -33.23,27.92 -3.59,0.6 -6.7,0.1 -8.99,-0.62 -23.52,-69.08 -98.28,-138.35 -153.44,-189.46 l -4.5,-4.16 c -37.88,-35.14 -28.92,-104.71 -21.72,-160.61 1.45,-11.33 2.84,-22.09 3.78,-31.95 11.58,-60.73 38.41,-128.79 60.17,-133.88 l 3.51,-1.16 c 3.07,-1.35 12.83,-2.78 43.4,2.65 l 7.13,-40.12 c -15.21,-2.71 -28.66,-4.5 -40.36,-4.5" style="fill:#030806;fill-opacity:1;fill-rule:nonzero;stroke:none" transform="matrix(0.13333333,0,0,-0.13333333,0,577.8)"/>
      <path id="path97" d="m 3454.2,1647.66 -9.36,40.88 c 11.14,2.51 17.18,13.79 20.39,21.9 6.62,16.78 4.48,33.81 1.48,38.23 -16.68,24.55 -91.09,97.42 -135.82,95 -19.23,-1.01 -24,-10.28 -25.58,-13.32 -6.98,-13.52 -3.72,-37.17 7.59,-55.02 l 1.53,-2.87 v 0 c 0.03,0 18.23,-33.73 102.4,-68.61 l -14.48,-31.49 c -93.35,38.68 -121.2,70.93 -126.39,80.93 -16.07,25.97 -24.94,65.66 -8.87,96.79 11.4,22.07 33.25,35.05 61.54,36.54 74.64,3.74 163.61,-98.99 173.65,-113.79 12.6,-18.53 13.81,-50.69 2.95,-78.19 -9.93,-25.11 -28.04,-41.8 -51.03,-46.98" style="fill:#030806;fill-opacity:1;fill-rule:nonzero;stroke:none" transform="matrix(0.13333333,0,0,-0.13333333,0,577.8)"/>
      <path id="path98" d="m 3424.99,1515.64 -9.45,41.95 c 8.22,1.85 16.3,10.65 22.15,24.13 9.35,21.55 8.17,42.91 5.61,47.28 -10.79,15.89 -86.11,73.51 -135.51,73.51 -0.24,0 -0.48,0 -0.72,0 -3.63,-1.74 -10.94,-8.49 -16.88,-22.8 -8.37,-20.19 -8.64,-42.23 -0.65,-54.83 l 2.77,-4.36 -0.01,-1.55 c 2.5,-4.39 20.57,-34.88 84.75,-45.77 l -10.01,-33.23 c -88.22,14.97 -110.07,50.54 -115.29,64.31 -16.92,29.11 -11.89,66.33 -1.28,91.91 11.01,26.56 25.05,59.53 44.76,63.92 l 7.15,-14.73 c 69.52,3.62 160.5,-68.65 176.55,-92.29 14.44,-21.26 10.03,-58.76 -0.19,-84.6 -11.38,-28.84 -30.48,-47.61 -53.75,-52.85" style="fill:#030806;fill-opacity:1;fill-rule:nonzero;stroke:none" transform="matrix(0.13333333,0,0,-0.13333333,0,577.8)"/>
      <path id="path99" d="m 3377.11,1452.35 -4.42,-30.96 c 17.85,3.28 30.03,11.88 37.02,26.09 11.68,23.74 5.23,55.02 0.73,62.21 -13.8,11.06 -88.02,41.35 -125.14,28.7 -10.61,-3.62 -13.16,-9.53 -14.2,-14.28 -3.14,-14.34 5.8,-37.46 19.52,-50.49 l 2.83,-2.69 c 4.71,-3.21 32.64,-23.78 83.66,-18.58 z m -17.48,-75.41 -1.3,41.91 c -66.17,-3.93 -90.78,15.58 -98.45,24.69 -20.82,20.48 -37.88,57.44 -30.8,89.77 4.79,21.85 19.62,46.89 42.15,54.57 54.64,18.64 145.41,-32.47 168.48,-46.63 17.53,-15.6 26.94,-63.91 12.81,-102.81 -8.04,-22.14 -30.8,-59.57 -92.89,-61.5" style="fill:#030806;fill-opacity:1;fill-rule:nonzero;stroke:none" transform="matrix(0.13333333,0,0,-0.13333333,0,577.8)"/>
      <path id="path100" d="m 3441.34,1812.28 -39.71,4.76 7.44,62.04 c 2.08,17.05 -1.28,21.27 -44.64,31.57 l -18.96,4.5 50.37,418.88 30.99,12.9 12.64,175.26 -59.26,7.24 -27,-173.22 27.92,-20.2 -45.44,-371.85 -39.71,4.85 42.59,348.42 -28.67,20.73 36.75,235.67 135.46,-16.55 -17.16,-237.8 -32.17,-13.39 -43.34,-360.42 c 32.49,-8.7 65.21,-23.4 59.34,-71.4 l -7.44,-61.99" style="fill:#030806;fill-opacity:1;fill-rule:nonzero;stroke:none" transform="matrix(0.13333333,0,0,-0.13333333,0,577.8)"/>
      <path id="path101" d="m 3279.59,1194.52 c -3.72,0 -7.47,0.24 -11.25,0.7 l -41.88,5.11 c -25.46,3.12 -47.22,16.19 -61.28,36.85 -13.14,19.3 -18.66,43.89 -15.57,69.23 l 61.43,502.67 39.7,-4.86 -61.42,-502.66 c -1.93,-15.72 1.25,-30.59 8.92,-41.87 7.59,-11.14 19.02,-17.93 33.06,-19.65 l 41.89,-5.12 c 14.08,-1.71 26.76,2.12 36.81,11.12 10.17,9.1 16.83,22.76 18.75,38.48 l 18.71,159.36 31.06,1.41 -10.04,-165.44 c -3.12,-25.52 -14.41,-48.06 -31.81,-63.63 -15.85,-14.18 -35.8,-21.7 -57.08,-21.7" style="fill:#030806;fill-opacity:1;fill-rule:nonzero;stroke:none" transform="matrix(0.13333333,0,0,-0.13333333,0,577.8)"/>
      <path id="path102" d="m 1367.3,1095.35 -3.11,39.88 c 35.35,2.77 866.71,67.73 939.8,62.8 l -2.66,-39.91 c -56.15,3.53 -635.52,-39.42 -934.03,-62.77" style="fill:#030806;fill-opacity:1;fill-rule:nonzero;stroke:none" transform="matrix(0.13333333,0,0,-0.13333333,0,577.8)"/>
      <path id="path103" d="m 918.195,1851.97 -32.168,23.77 c 71.696,96.99 112.223,196.84 131.893,262.91 2.22,7.46 4.3,14.43 6.27,20.85 l 27.43,-11.76 c -1.94,-6.32 -3.98,-13.17 -6.16,-20.5 -19.23,-64.58 -51.401,-172.64 -127.265,-275.27" style="fill:#030806;fill-opacity:1;fill-rule:nonzero;stroke:none" transform="matrix(0.13333333,0,0,-0.13333333,0,577.8)"/>
      <path id="path104" d="m 1062,1160.99 -39.67,5.18 c 13.64,104.51 -55.865,311.34 -56.717,313.42 l 22.621,15.14 C 991.867,1485.85 1077,1276 1062,1160.99" style="fill:#030806;fill-opacity:1;fill-rule:nonzero;stroke:none" transform="matrix(0.13333333,0,0,-0.13333333,0,577.8)"/>
      <path id="path105" d="m 2628.01,2099.55 c -85.26,70.21 -171.42,298.17 -175.05,307.85 l 23.06,14.04 c 0.85,-2.27 100.39,-227.58 177.42,-291.01 l -25.43,-30.88" style="fill:#030806;fill-opacity:1;fill-rule:nonzero;stroke:none" transform="matrix(0.13333333,0,0,-0.13333333,0,577.8)"/>
      <path id="path106" d="m 2650.15,1347.7 c -39.11,180.87 -6.24,335.26 -4.82,341.74 l 28.28,-4.93 c -0.33,-1.52 -21.55,-156.35 15.65,-328.35 l -39.11,-8.46" style="fill:#030806;fill-opacity:1;fill-rule:nonzero;stroke:none" transform="matrix(0.13333333,0,0,-0.13333333,0,577.8)"/>
      <path id="path107" d="m 2004.29,576.59 -11.93,38.18 154.54,48.289 11.94,-38.18 -154.55,-48.289" style="fill:#030806;fill-opacity:1;fill-rule:nonzero;stroke:none" transform="matrix(0.13333333,0,0,-0.13333333,0,577.8)"/>
      <path id="path108" d="m 1702.52,564.09 -158,10.199 2.58,39.922 158,-10.199 -2.58,-39.922" style="fill:#030806;fill-opacity:1;fill-rule:nonzero;stroke:none" transform="matrix(0.13333333,0,0,-0.13333333,0,577.8)"/>
      <path id="path109" d="m 1908.6,3006.89 c -42.87,-86.89 -143.45,-149.13 -261.99,-151.74 -93.53,-2.05 -177.52,33.48 -231.71,90.27 l -51.93,-11.18 c 0,0 82.71,-281.31 343.54,-231.84 260.83,49.47 261.55,257.74 265.69,286.27 l -63.6,18.22" style="fill:#030806;fill-opacity:1;fill-rule:nonzero;stroke:none" transform="matrix(0.13333333,0,0,-0.13333333,0,577.8)"/>
      <path id="path110" d="m 3010.78,1913.1 c -37.34,0 -65.9,11.52 -84.86,34.25 -27.73,33.21 -23.19,77.06 -21.58,87.7 l 32.6,747.22 49.96,-2.18 -32.74,-750.39 -0.3,-1.68 c -1.41,-8.3 -2.29,-33.56 10.59,-48.81 9.04,-10.69 24.62,-16.11 46.33,-16.11 24.68,0 42.53,5.82 53.09,17.29 13.79,14.99 12.13,36.64 12.13,36.86 l -0.12,1.37 0.01,1.64 13.18,521.79 49.98,-1.26 -13.14,-520.48 c 0.62,-9.3 1.06,-44.56 -24.6,-73.06 -20.4,-22.66 -50.86,-34.15 -90.53,-34.15" style="fill:#030806;fill-opacity:1;fill-rule:nonzero;stroke:none" transform="matrix(0.13333333,0,0,-0.13333333,0,577.8)"/>
      <path id="path111" d="m 3324.66,3058.89 h -20 v 226.49 h 20 v -226.49" style="fill:#030806;fill-opacity:1;fill-rule:nonzero;stroke:none" transform="matrix(0.13333333,0,0,-0.13333333,0,577.8)"/>
      <path id="path112" d="m 3173.67,3063.61 h -20 v 207.62 h 20 v -207.62" style="fill:#030806;fill-opacity:1;fill-rule:nonzero;stroke:none" transform="matrix(0.13333333,0,0,-0.13333333,0,577.8)"/>
      <path id="path113" d="m 3300.89,1219.21 -19.83,2.69 28.31,207.62 19.83,-2.7 -28.31,-207.61" style="fill:#030806;fill-opacity:1;fill-rule:nonzero;stroke:none" transform="matrix(0.13333333,0,0,-0.13333333,0,577.8)"/>
      <path id="path114" d="m 3225.42,1228.87 -19.88,2.24 61.33,542.64 19.89,-2.25 -61.34,-542.63" style="fill:#030806;fill-opacity:1;fill-rule:nonzero;stroke:none" transform="matrix(0.13333333,0,0,-0.13333333,0,577.8)"/>
      <path id="path115" d="m 1570.52,1691.77 -1.07,9.94 46.92,5.05 1.07,-9.94 -46.92,-5.05" style="fill:#030806;fill-opacity:1;fill-rule:nonzero;stroke:none" transform="matrix(0.13333333,0,0,-0.13333333,0,577.8)"/>
      <path id="path116" d="m 1969.29,1734.69 -1.07,9.94 46.92,5.05 1.07,-9.94 -46.92,-5.05" style="fill:#030806;fill-opacity:1;fill-rule:nonzero;stroke:none" transform="matrix(0.13333333,0,0,-0.13333333,0,577.8)"/>
      <path id="path117" d="m 1761.89,1918.59 -4.72,75.49 9.98,0.63 4.72,-75.49 -9.98,-0.63" style="fill:#030806;fill-opacity:1;fill-rule:nonzero;stroke:none" transform="matrix(0.13333333,0,0,-0.13333333,0,577.8)"/>
      <path id="path118" d="m 1645.97,1844.08 -51.9,37.74 5.88,8.09 51.9,-37.74 -5.88,-8.09" style="fill:#030806;fill-opacity:1;fill-rule:nonzero;stroke:none" transform="matrix(0.13333333,0,0,-0.13333333,0,577.8)"/>
      <path id="path119" d="m 1907.87,1873.66 -8.32,5.55 37.75,56.62 8.32,-5.55 -37.75,-56.62" style="fill:#030806;fill-opacity:1;fill-rule:nonzero;stroke:none" transform="matrix(0.13333333,0,0,-0.13333333,0,577.8)"/>
      <path id="path120" d="m 1443.46,784.531 267.22,109.321 44.13,85.269 -286.43,-4.551 -24.92,-190.039" style="fill:#030806;fill-opacity:1;fill-rule:nonzero;stroke:none" transform="matrix(0.13333333,0,0,-0.13333333,0,577.8)"/>
      <path id="path121" d="m 1947.54,906 291.52,103.24 -285.65,-3.38 z" style="fill:#030806;fill-opacity:1;fill-rule:nonzero;stroke:none" transform="matrix(0.13333333,0,0,-0.13333333,0,577.8)"/>
      <path id="path122" d="m 1813.36,2474.4 c -73,-57.36 -221.71,-114.21 -221.71,-114.21 l 5.26,127.87 216.45,-13.66" style="fill:#030806;fill-opacity:1;fill-rule:nonzero;stroke:none" transform="matrix(0.13333333,0,0,-0.13333333,0,577.8)"/>
    </g>
  </g>
</svg>
