<svg width="104" height="104" viewBox="0 0 104 104" fill="none" xmlns="http://www.w3.org/2000/svg">
<mask id="mask0_578_2089" style="mask-type:alpha" maskUnits="userSpaceOnUse" x="0" y="0" width="104" height="104">
<rect width="104" height="104" fill="#D9D9D9"/>
</mask>
<g mask="url(#mask0_578_2089)">
<path d="M37.1584 58.5H61.5334V52H37.1584V58.5ZM37.1584 48.75H79.9501V42.25H37.1584V48.75ZM37.1584 39H79.9501V32.5H37.1584V39ZM28.1667 82.3333C26.4334 82.3333 24.9167 81.6833 23.6167 80.3833C22.3167 79.0833 21.6667 77.5666 21.6667 75.8333V15.1666C21.6667 13.4333 22.3167 11.9166 23.6167 10.6166C24.9167 9.31663 26.4334 8.66663 28.1667 8.66663H88.8334C90.5667 8.66663 92.0834 9.31663 93.3834 10.6166C94.6834 11.9166 95.3334 13.4333 95.3334 15.1666V75.8333C95.3334 77.5666 94.6834 79.0833 93.3834 80.3833C92.0834 81.6833 90.5667 82.3333 88.8334 82.3333H28.1667ZM28.1667 75.8333H88.8334V15.1666H28.1667V75.8333ZM15.1667 95.3333C13.4334 95.3333 11.9167 94.6833 10.6167 93.3833C9.31675 92.0833 8.66675 90.5666 8.66675 88.8333V21.6666H15.1667V88.8333H82.3334V95.3333H15.1667Z" fill="#22314E"/>
</g>
</svg>
