<svg width="108" height="28" viewBox="0 0 108 28" fill="none" xmlns="http://www.w3.org/2000/svg">
<path fill-rule="evenodd" clip-rule="evenodd" d="M72.8939 28C65.965 28 61.5624 22.2215 61.5624 13.9999C61.5624 5.77837 65.965 0 72.8939 0C79.8613 0 84.2637 5.77837 84.2637 13.9999C84.2637 22.2215 79.8613 28 72.8939 28ZM72.8939 4.07192C68.2236 4.07192 65.6588 7.91119 65.6588 13.9999C65.6588 20.0887 68.2236 23.9279 72.8939 23.9279C77.6028 23.9279 80.1675 20.0887 80.1675 13.9999C80.1675 7.91119 77.6027 4.07192 72.8939 4.07192Z" fill="#22314E"/>
<path d="M3.05487 6.5483C4.74209 6.5483 6.11005 5.16273 6.11005 3.45362C6.11005 1.74482 4.74209 0.358939 3.05487 0.358939C1.36797 0.358939 0 1.74482 0 3.45362C0 5.16273 1.36781 6.5483 3.05487 6.5483Z" fill="#22314E"/>
<path d="M3.05487 17.0947C4.74209 17.0947 6.11005 15.7092 6.11005 14.0001C6.11005 12.2909 4.74209 10.9054 3.05487 10.9054C1.36797 10.9054 0 12.2909 0 14.0001C0 15.7092 1.36781 17.0947 3.05487 17.0947Z" fill="#22314E"/>
<path d="M6.11005 24.5461C6.11005 26.2549 4.74209 27.6408 3.05487 27.6408C1.36781 27.6408 0 26.2549 0 24.5461C0 22.8373 1.36797 21.4515 3.05487 21.4515C4.74209 21.4515 6.11005 22.8372 6.11005 24.5461Z" fill="#22314E"/>
<path d="M13.7155 17.0947C15.4027 17.0947 16.7707 15.7092 16.7707 14.0001C16.7707 12.2909 15.4027 10.9054 13.7155 10.9054C12.0286 10.9054 10.6606 12.2909 10.6606 14.0001C10.6606 15.7092 12.0284 17.0947 13.7155 17.0947Z" fill="#22314E"/>
<path d="M16.7707 3.45362C16.7707 5.16273 15.4027 6.5483 13.7155 6.5483C12.0284 6.5483 10.6606 5.16273 10.6606 3.45362C10.6606 1.74482 12.0286 0.358939 13.7155 0.358939C15.4027 0.358939 16.7707 1.74482 16.7707 3.45362Z" fill="#22314E"/>
<path d="M24.3757 17.0944C26.0629 17.0944 27.4309 15.7088 27.4309 13.9997C27.4309 12.2906 26.0631 10.905 24.3757 10.905C22.6888 10.905 21.3208 12.2906 21.3208 13.9997C21.3208 15.7088 22.6886 17.0944 24.3757 17.0944Z" fill="#22314E"/>
<path d="M27.4309 3.45362C27.4309 5.16273 26.0629 6.5483 24.3757 6.5483C22.6886 6.5483 21.3208 5.16273 21.3208 3.45362C21.3208 1.74482 22.6888 0.358939 24.3757 0.358939C26.0631 0.358939 27.4309 1.74482 27.4309 3.45362Z" fill="#22314E"/>
<path d="M24.3757 27.6408C26.0629 27.6408 27.4309 26.2549 27.4309 24.5461C27.4309 22.8372 26.0631 21.4515 24.3757 21.4515C22.6888 21.4515 21.3208 22.8373 21.3208 24.5461C21.3208 26.2549 22.6886 27.6408 24.3757 27.6408Z" fill="#22314E"/>
<path d="M16.7707 24.5461C16.7707 26.2549 15.4027 27.6408 13.7155 27.6408C12.0284 27.6408 10.6606 26.2549 10.6606 24.5461C10.6606 22.8373 12.0286 21.4515 13.7155 21.4515C15.4027 21.4515 16.7707 22.8372 16.7707 24.5461Z" fill="#22314E"/>
<path fill-rule="evenodd" clip-rule="evenodd" d="M56.2016 27.5729L50.7273 16.4816C54.3642 15.5507 56.6227 12.875 56.6227 8.53149C56.6227 2.94715 52.6798 0.426263 48.0093 0.426263H36.2568V27.5729H40.1998V16.8309H46.2483L51.5695 27.5729H56.2016ZM40.1999 4.26553H48.0093C50.7273 4.26553 52.5648 5.81672 52.565 8.64781C52.565 11.5951 50.6891 12.9913 48.0093 12.9913H40.1999V4.26553Z" fill="#22314E"/>
<path d="M88.5525 23.6177C90.8114 26.2936 94.1799 28 98.085 28C104.937 28 108 24.6648 108 19.7783C108 14.9307 104.707 13.2244 99.4248 11.5955C94.7924 10.1996 93.5673 9.26881 93.5673 7.36849C93.5673 5.54571 94.9071 3.99453 98.0467 3.99453C100.688 3.99453 102.602 4.84775 104.287 6.59282L107.119 3.68417C104.746 1.35731 101.989 0 98.3526 0C93.4144 0 89.5098 2.86988 89.5098 7.56237C89.5098 12.41 92.2276 13.8448 97.8931 15.551C102.373 16.9084 103.942 17.9555 103.942 20.0497C103.942 22.6868 102.142 24.0055 98.3909 24.0055C95.8644 24.0055 93.2231 22.7645 91.4239 20.7865L88.5525 23.6177Z" fill="#22314E"/>
</svg>
