<svg width="104" height="104" viewBox="0 0 104 104" fill="none" xmlns="http://www.w3.org/2000/svg">
<mask id="mask0_578_2101" style="mask-type:alpha" maskUnits="userSpaceOnUse" x="0" y="0" width="104" height="104">
<rect width="104" height="104" fill="#D9D9D9"/>
</mask>
<g mask="url(#mask0_578_2101)">
<path d="M60.6666 41.8166V36.6166C63.0499 35.6055 65.4874 34.8471 67.9791 34.3416C70.4708 33.836 73.0888 33.5833 75.8333 33.5833C77.711 33.5833 79.5527 33.7277 81.3583 34.0166C83.1638 34.3055 84.9333 34.6666 86.6666 35.0999V39.8666C84.9333 39.2166 83.1819 38.7291 81.4124 38.4041C79.643 38.0791 77.7833 37.9166 75.8333 37.9166C73.0888 37.9166 70.4527 38.2596 67.9249 38.9458C65.3971 39.6319 62.9777 40.5888 60.6666 41.8166ZM60.6666 65.6499V60.3416C63.0499 59.3666 65.4874 58.6353 67.9791 58.1478C70.4708 57.6603 73.0888 57.4166 75.8333 57.4166C77.711 57.4166 79.5527 57.561 81.3583 57.8499C83.1638 58.1388 84.9333 58.4999 86.6666 58.9333V63.6999C84.9333 63.0499 83.1819 62.5624 81.4124 62.2374C79.643 61.9124 77.7833 61.7499 75.8333 61.7499C73.0888 61.7499 70.4527 62.0749 67.9249 62.7249C65.3971 63.3749 62.9777 64.3499 60.6666 65.6499ZM60.6666 53.7333V48.5333C63.0499 47.5221 65.4874 46.7638 67.9791 46.2583C70.4708 45.7527 73.0888 45.4999 75.8333 45.4999C77.711 45.4999 79.5527 45.6444 81.3583 45.9333C83.1638 46.2221 84.9333 46.5833 86.6666 47.0166V51.7833C84.9333 51.1333 83.1819 50.6458 81.4124 50.3208C79.643 49.9958 77.7833 49.8333 75.8333 49.8333C73.0888 49.8333 70.4527 50.1763 67.9249 50.8624C65.3971 51.5485 62.9777 52.5055 60.6666 53.7333ZM26.8666 71.4999C30.7355 71.4999 34.5012 71.9513 38.1636 72.8541C41.8267 73.7569 45.4277 75.111 48.9666 76.9166V30.6583C45.7166 28.4916 42.1914 26.8124 38.3911 25.6208C34.5908 24.4291 30.7493 23.8333 26.8666 23.8333C24.1221 23.8333 21.4319 24.1763 18.7958 24.8624C16.1596 25.5485 13.5055 26.3971 10.8333 27.4083V74.4249C13.0721 73.4138 15.618 72.6735 18.4708 72.2041C21.3235 71.7346 24.1221 71.4999 26.8666 71.4999ZM55.4666 76.9166C59.0777 75.111 62.6166 73.7569 66.0833 72.8541C69.5499 71.9513 73.2333 71.4999 77.1333 71.4999C79.8777 71.4999 82.7124 71.7166 85.6374 72.1499C88.5624 72.5833 91.0721 73.161 93.1666 73.8833V27.4083C90.711 26.1805 88.1175 25.2777 85.3861 24.6999C82.6546 24.1221 79.9037 23.8333 77.1333 23.8333C73.2333 23.8333 69.4596 24.4291 65.8124 25.6208C62.1652 26.8124 58.7166 28.4916 55.4666 30.6583V76.9166ZM52.2166 86.6666C48.5333 83.9221 44.5249 81.8096 40.1916 80.3291C35.8583 78.8485 31.4166 78.1083 26.8666 78.1083C24.2276 78.1083 21.6359 78.4333 19.0915 79.0833C16.5471 79.7333 14.011 80.5277 11.4833 81.4666C9.81492 82.261 8.20617 82.1527 6.657 81.1416C5.10784 80.1305 4.33325 78.686 4.33325 76.8083V26.6499C4.33325 25.5666 4.58603 24.5735 5.09159 23.6708C5.59714 22.768 6.35547 22.0638 7.36659 21.5583C10.3999 20.1138 13.5557 19.0485 16.8338 18.3624C20.1127 17.6763 23.457 17.3333 26.8666 17.3333C31.4166 17.3333 35.8402 17.9471 40.1374 19.1749C44.4346 20.4027 48.461 22.2805 52.2166 24.8083C55.8999 22.2805 59.8541 20.4027 64.0791 19.1749C68.3041 17.9471 72.6555 17.3333 77.1333 17.3333C80.5183 17.3333 83.838 17.6763 87.0923 18.3624C90.3474 19.0485 93.4916 20.1138 96.5249 21.5583C97.536 22.0638 98.3124 22.768 98.8541 23.6708C99.3958 24.5735 99.6666 25.5666 99.6666 26.6499V76.8083C99.6666 78.8225 98.8541 80.3554 97.2291 81.407C95.6041 82.4578 93.9971 82.4777 92.4083 81.4666C89.9527 80.4555 87.4527 79.643 84.9083 79.0291C82.364 78.4152 79.7723 78.1083 77.1333 78.1083C72.5833 78.1083 68.2138 78.8666 64.0249 80.3833C59.836 81.8999 55.8999 83.9944 52.2166 86.6666Z" fill="#22314E"/>
</g>
</svg>
