<svg width="120" height="120" viewBox="0 0 120 120" fill="none" xmlns="http://www.w3.org/2000/svg">
<mask id="mask0_580_1179" style="mask-type:alpha" maskUnits="userSpaceOnUse" x="0" y="0" width="120" height="120">
<rect width="120" height="120" fill="#D9D9D9"/>
</mask>
<g mask="url(#mask0_580_1179)">
<path d="M60 74.9999C55.8333 74.9999 52.2917 73.5416 49.375 70.6249C46.4583 67.7083 45 64.1666 45 59.9999C45 55.8333 46.4583 52.2916 49.375 49.3749C52.2917 46.4583 55.8333 44.9999 60 44.9999C64.1667 44.9999 67.7083 46.4583 70.625 49.3749C73.5417 52.2916 75 55.8333 75 59.9999C75 64.1666 73.5417 67.7083 70.625 70.6249C67.7083 73.5416 64.1667 74.9999 60 74.9999ZM20 92.4999C17.9375 92.4999 16.1721 91.7654 14.7038 90.2962C13.2346 88.8279 12.5 87.0624 12.5 84.9999V34.9999C12.5 32.9374 13.2346 31.1716 14.7038 29.7024C16.1721 28.2341 17.9375 27.4999 20 27.4999H100C102.062 27.4999 103.828 28.2341 105.298 29.7024C106.766 31.1716 107.5 32.9374 107.5 34.9999V84.9999C107.5 87.0624 106.766 88.8279 105.298 90.2962C103.828 91.7654 102.062 92.4999 100 92.4999H20ZM32.5 84.9999H87.5C87.5 81.4999 88.7083 78.5416 91.125 76.1249C93.5417 73.7083 96.5 72.4999 100 72.4999V47.4999C96.5 47.4999 93.5417 46.2916 91.125 43.8749C88.7083 41.4583 87.5 38.4999 87.5 34.9999H32.5C32.5 38.4999 31.2917 41.4583 28.875 43.8749C26.4583 46.2916 23.5 47.4999 20 47.4999V72.4999C23.5 72.4999 26.4583 73.7083 28.875 76.1249C31.2917 78.5416 32.5 81.4999 32.5 84.9999Z" fill="#22314E"/>
</g>
</svg>
