<svg width="844" height="844" viewBox="0 0 844 844" fill="none" xmlns="http://www.w3.org/2000/svg">
<ellipse cx="129.451" cy="422" rx="27.0667" ry="27.0667" fill="#22314E"/>
<path d="M156.017 422C156.017 436.672 144.123 448.567 129.451 448.567C114.778 448.567 102.884 436.672 102.884 422C102.884 407.327 114.778 395.433 129.451 395.433C144.123 395.433 156.017 407.327 156.017 422Z" stroke="#BFC4CC" stroke-opacity="0.5"/>
<ellipse cx="143.867" cy="330.979" rx="27.0667" ry="27.0667" fill="#22314E"/>
<path d="M170.434 330.979C170.434 345.651 158.539 357.546 143.867 357.546C129.194 357.546 117.3 345.651 117.3 330.979C117.3 316.306 129.194 304.412 143.867 304.412C158.539 304.412 170.434 316.306 170.434 330.979Z" stroke="#BFC4CC" stroke-opacity="0.5"/>
<ellipse cx="185.705" cy="248.868" rx="27.0667" ry="27.0667" fill="#22314E"/>
<path d="M212.272 248.868C212.272 263.54 200.377 275.434 185.705 275.434C171.033 275.434 159.138 263.54 159.138 248.868C159.138 234.195 171.033 222.301 185.705 222.301C200.377 222.301 212.272 234.195 212.272 248.868Z" stroke="#BFC4CC" stroke-opacity="0.5"/>
<ellipse cx="250.868" cy="183.704" rx="27.0667" ry="27.0667" fill="#22314E"/>
<path d="M277.435 183.704C277.435 198.376 265.541 210.271 250.868 210.271C236.196 210.271 224.301 198.376 224.301 183.704C224.301 169.032 236.196 157.137 250.868 157.137C265.541 157.137 277.435 169.032 277.435 183.704Z" stroke="#BFC4CC" stroke-opacity="0.5"/>
<ellipse cx="332.979" cy="141.866" rx="27.0667" ry="27.0667" fill="#22314E"/>
<path d="M359.546 141.866C359.546 156.539 347.652 168.433 332.979 168.433C318.307 168.433 306.413 156.539 306.413 141.866C306.413 127.194 318.307 115.3 332.979 115.3C347.652 115.3 359.546 127.194 359.546 141.866Z" stroke="#BFC4CC" stroke-opacity="0.5"/>
<ellipse cx="424.001" cy="127.45" rx="27.0667" ry="27.0667" fill="#22314E"/>
<path d="M450.568 127.45C450.568 142.122 438.674 154.017 424.001 154.017C409.329 154.017 397.434 142.122 397.434 127.45C397.434 112.778 409.329 100.883 424.001 100.883C438.674 100.883 450.568 112.778 450.568 127.45Z" stroke="#BFC4CC" stroke-opacity="0.5"/>
<ellipse cx="515.022" cy="141.866" rx="27.0667" ry="27.0667" fill="#22314E"/>
<path d="M541.589 141.866C541.589 156.539 529.695 168.433 515.022 168.433C500.35 168.433 488.455 156.539 488.455 141.866C488.455 127.194 500.35 115.3 515.022 115.3C529.695 115.3 541.589 127.194 541.589 141.866Z" stroke="#BFC4CC" stroke-opacity="0.5"/>
<ellipse cx="597.132" cy="183.704" rx="27.0667" ry="27.0667" fill="#22314E"/>
<path d="M623.699 183.704C623.699 198.376 611.805 210.271 597.132 210.271C582.46 210.271 570.566 198.376 570.566 183.704C570.566 169.032 582.46 157.137 597.132 157.137C611.805 157.137 623.699 169.032 623.699 183.704Z" stroke="#BFC4CC" stroke-opacity="0.5"/>
<ellipse cx="662.296" cy="248.868" rx="27.0667" ry="27.0667" fill="#22314E"/>
<path d="M688.863 248.868C688.863 263.54 676.969 275.434 662.296 275.434C647.624 275.434 635.729 263.54 635.729 248.868C635.729 234.195 647.624 222.301 662.296 222.301C676.969 222.301 688.863 234.195 688.863 248.868Z" stroke="#BFC4CC" stroke-opacity="0.5"/>
<ellipse cx="704.134" cy="330.979" rx="27.0667" ry="27.0667" fill="#22314E"/>
<path d="M730.701 330.979C730.701 345.651 718.806 357.546 704.134 357.546C689.461 357.546 677.567 345.651 677.567 330.979C677.567 316.306 689.461 304.412 704.134 304.412C718.806 304.412 730.701 316.306 730.701 330.979Z" stroke="#BFC4CC" stroke-opacity="0.5"/>
<ellipse cx="718.55" cy="422" rx="27.0667" ry="27.0667" fill="#22314E"/>
<path d="M745.117 422C745.117 436.672 733.222 448.567 718.55 448.567C703.877 448.567 691.983 436.672 691.983 422C691.983 407.327 703.877 395.433 718.55 395.433C733.222 395.433 745.117 407.327 745.117 422Z" stroke="#BFC4CC" stroke-opacity="0.5"/>
<ellipse cx="704.134" cy="513.021" rx="27.0667" ry="27.0667" fill="#22314E"/>
<path d="M730.701 513.021C730.701 527.693 718.806 539.588 704.134 539.588C689.461 539.588 677.567 527.693 677.567 513.021C677.567 498.348 689.461 486.454 704.134 486.454C718.806 486.454 730.701 498.348 730.701 513.021Z" stroke="#BFC4CC" stroke-opacity="0.5"/>
<ellipse cx="662.296" cy="595.132" rx="27.0667" ry="27.0667" fill="#22314E"/>
<path d="M688.863 595.132C688.863 609.804 676.968 621.699 662.296 621.699C647.624 621.699 635.729 609.804 635.729 595.132C635.729 580.46 647.624 568.565 662.296 568.565C676.968 568.565 688.863 580.46 688.863 595.132Z" stroke="#BFC4CC" stroke-opacity="0.5"/>
<ellipse cx="597.132" cy="660.296" rx="27.0667" ry="27.0667" fill="#22314E"/>
<path d="M623.699 660.296C623.699 674.968 611.805 686.862 597.132 686.862C582.46 686.862 570.566 674.968 570.566 660.296C570.566 645.623 582.46 633.729 597.132 633.729C611.805 633.729 623.699 645.623 623.699 660.296Z" stroke="#BFC4CC" stroke-opacity="0.5"/>
<ellipse cx="515.022" cy="702.133" rx="27.0667" ry="27.0667" fill="#22314E"/>
<path d="M541.589 702.133C541.589 716.806 529.695 728.7 515.022 728.7C500.35 728.7 488.455 716.806 488.455 702.133C488.455 687.461 500.35 675.566 515.022 675.566C529.695 675.566 541.589 687.461 541.589 702.133Z" stroke="#BFC4CC" stroke-opacity="0.5"/>
<ellipse cx="424.001" cy="716.55" rx="27.0667" ry="27.0667" fill="#22314E"/>
<path d="M450.568 716.55C450.568 731.222 438.674 743.116 424.001 743.116C409.329 743.116 397.434 731.222 397.434 716.55C397.434 701.877 409.329 689.983 424.001 689.983C438.674 689.983 450.568 701.877 450.568 716.55Z" stroke="#BFC4CC" stroke-opacity="0.5"/>
<ellipse cx="332.979" cy="702.133" rx="27.0667" ry="27.0667" fill="#22314E"/>
<path d="M359.546 702.133C359.546 716.806 347.652 728.7 332.979 728.7C318.307 728.7 306.413 716.806 306.413 702.133C306.413 687.461 318.307 675.566 332.979 675.566C347.652 675.566 359.546 687.461 359.546 702.133Z" stroke="#BFC4CC" stroke-opacity="0.5"/>
<ellipse cx="250.868" cy="660.296" rx="27.0667" ry="27.0667" fill="#22314E"/>
<path d="M277.435 660.296C277.435 674.968 265.541 686.862 250.868 686.862C236.196 686.862 224.301 674.968 224.301 660.296C224.301 645.623 236.196 633.729 250.868 633.729C265.541 633.729 277.435 645.623 277.435 660.296Z" stroke="#BFC4CC" stroke-opacity="0.5"/>
<ellipse cx="185.705" cy="595.132" rx="27.0667" ry="27.0667" fill="#22314E"/>
<path d="M212.272 595.132C212.272 609.804 200.377 621.699 185.705 621.699C171.033 621.699 159.138 609.804 159.138 595.132C159.138 580.46 171.033 568.565 185.705 568.565C200.377 568.565 212.272 580.46 212.272 595.132Z" stroke="#BFC4CC" stroke-opacity="0.5"/>
<ellipse cx="143.867" cy="513.021" rx="27.0667" ry="27.0667" fill="#22314E"/>
<path d="M170.434 513.021C170.434 527.693 158.539 539.588 143.867 539.588C129.194 539.588 117.3 527.693 117.3 513.021C117.3 498.348 129.194 486.454 143.867 486.454C158.539 486.454 170.434 498.348 170.434 513.021Z" stroke="#BFC4CC" stroke-opacity="0.5"/>
<circle cx="26.8787" cy="422" r="26.8787" fill="#ADC6F9"/>
<circle cx="40.3419" cy="319.735" r="26.8787" fill="#ADC6F9"/>
<circle cx="79.8152" cy="224.439" r="26.8787" fill="#ADC6F9"/>
<circle cx="142.607" cy="142.607" r="26.8787" fill="#ADC6F9"/>
<circle cx="224.439" cy="79.815" r="26.8787" fill="#ADC6F9"/>
<circle cx="319.735" cy="40.3421" r="26.8787" fill="#ADC6F9"/>
<circle cx="422" cy="26.8787" r="26.8787" fill="#ADC6F9"/>
<circle cx="524.265" cy="40.3421" r="26.8787" fill="#ADC6F9"/>
<circle cx="619.561" cy="79.815" r="26.8787" fill="#ADC6F9"/>
<circle cx="701.393" cy="142.607" r="26.8787" fill="#ADC6F9"/>
<circle cx="764.185" cy="224.439" r="26.8787" fill="#ADC6F9"/>
<circle cx="803.658" cy="319.735" r="26.8787" fill="#ADC6F9"/>
<circle cx="817.121" cy="422" r="26.8787" fill="#ADC6F9"/>
<circle cx="803.658" cy="524.265" r="26.8787" fill="#ADC6F9"/>
<circle cx="764.185" cy="619.561" r="26.8787" fill="#ADC6F9"/>
<circle cx="701.393" cy="701.393" r="26.8787" fill="#ADC6F9"/>
<circle cx="619.561" cy="764.185" r="26.8787" fill="#ADC6F9"/>
<circle cx="524.265" cy="803.658" r="26.8787" fill="#ADC6F9"/>
<circle cx="422" cy="817.121" r="26.8787" fill="#ADC6F9"/>
<circle cx="319.735" cy="803.658" r="26.8787" fill="#ADC6F9"/>
<circle cx="224.439" cy="764.185" r="26.8787" fill="#ADC6F9"/>
<circle cx="142.607" cy="701.393" r="26.8787" fill="#ADC6F9"/>
<circle cx="79.8152" cy="619.561" r="26.8787" fill="#ADC6F9"/>
<circle cx="40.3419" cy="524.265" r="26.8787" fill="#ADC6F9"/>
</svg>
