<svg width="148" height="43" viewBox="0 0 148 43" fill="none" xmlns="http://www.w3.org/2000/svg">
<path d="M10.7196 7.86886C10.7196 10.1497 8.93053 11.9987 6.72388 11.9987C4.51743 11.9987 2.72852 10.1497 2.72852 7.86886C2.72852 5.58847 4.51763 3.73901 6.72388 3.73901C8.93053 3.73901 10.7196 5.58847 10.7196 7.86886Z" fill="#22314E"/>
<path d="M10.7196 21.9428C10.7196 24.2236 8.93053 26.0727 6.72388 26.0727C4.51743 26.0727 2.72852 24.2236 2.72852 21.9428C2.72852 19.662 4.51763 17.813 6.72388 17.813C8.93053 17.813 10.7196 19.662 10.7196 21.9428Z" fill="#22314E"/>
<path d="M10.7196 36.0171C10.7196 38.2974 8.93053 40.1469 6.72388 40.1469C4.51743 40.1469 2.72852 38.2974 2.72852 36.0171C2.72852 33.7367 4.51763 31.8872 6.72388 31.8872C8.93053 31.8872 10.7196 33.7365 10.7196 36.0171Z" fill="#22314E"/>
<path d="M24.6623 21.9428C24.6623 24.2236 22.8732 26.0727 20.6665 26.0727C18.4601 26.0727 16.6711 24.2236 16.6711 21.9428C16.6711 19.662 18.4603 17.813 20.6665 17.813C22.8732 17.813 24.6623 19.662 24.6623 21.9428Z" fill="#22314E"/>
<path d="M24.6623 7.86886C24.6623 10.1497 22.8732 11.9987 20.6665 11.9987C18.4601 11.9987 16.6711 10.1497 16.6711 7.86886C16.6711 5.58847 18.4603 3.73901 20.6665 3.73901C22.8732 3.73901 24.6623 5.58847 24.6623 7.86886Z" fill="#22314E"/>
<path d="M38.6044 21.9428C38.6044 24.2236 36.8153 26.0727 34.6086 26.0727C32.4022 26.0727 30.6133 24.2236 30.6133 21.9428C30.6133 19.662 32.4024 17.813 34.6086 17.813C36.8155 17.813 38.6044 19.662 38.6044 21.9428Z" fill="#22314E"/>
<path d="M38.6044 7.8691C38.6044 10.1499 36.8153 11.999 34.6086 11.999C32.4022 11.999 30.6133 10.1499 30.6133 7.8691C30.6133 5.58871 32.4024 3.73926 34.6086 3.73926C36.8155 3.73926 38.6044 5.58871 38.6044 7.8691Z" fill="#22314E"/>
<path d="M38.6044 36.0171C38.6044 38.2974 36.8153 40.1469 34.6086 40.1469C32.4022 40.1469 30.6133 38.2974 30.6133 36.0171C30.6133 33.7367 32.4024 31.8872 34.6086 31.8872C36.8155 31.8872 38.6044 33.7365 38.6044 36.0171Z" fill="#22314E"/>
<path d="M24.6623 36.0171C24.6623 38.2974 22.8732 40.1469 20.6665 40.1469C18.4601 40.1469 16.6711 38.2974 16.6711 36.0171C16.6711 33.7367 18.4603 31.8872 20.6665 31.8872C22.8732 31.8872 24.6623 33.7365 24.6623 36.0171Z" fill="#22314E"/>
<path d="M69.0729 25.2549L76.2326 40.0562H70.1745L63.2151 25.7211H55.3044V40.0562H50.1475V3.8291H65.5182C71.6266 3.8291 76.7833 7.19323 76.7833 14.6455C76.7833 20.4419 73.8296 24.0126 69.0729 25.2549ZM65.5182 8.9526H55.3046V20.5972H65.5182C69.0231 20.5972 71.4764 18.7339 71.4764 14.8008C71.4762 11.0227 69.0729 8.9526 65.5182 8.9526Z" fill="#22314E"/>
<path d="M98.0639 40.6257C89.0018 40.6257 83.2439 32.9143 83.2439 21.9426C83.2439 10.971 89.0018 3.25977 98.0639 3.25977C107.176 3.25977 112.934 10.971 112.934 21.9426C112.934 32.9143 107.176 40.6257 98.0639 40.6257ZM98.0639 8.69374C91.9558 8.69374 88.6013 13.8172 88.6013 21.9426C88.6013 30.0681 91.9558 35.1916 98.0639 35.1916C104.223 35.1916 107.577 30.0681 107.577 21.9426C107.577 13.8172 104.222 8.69374 98.0639 8.69374Z" fill="#22314E"/>
<path d="M131.01 40.6257C125.903 40.6257 121.498 38.3485 118.543 34.7776L122.299 30.9993C124.652 33.639 128.106 35.295 131.411 35.295C136.317 35.295 138.67 33.5353 138.67 30.0161C138.67 27.2214 136.618 25.824 130.76 24.0125C123.35 21.7357 119.795 19.8208 119.795 13.3517C119.795 7.08961 124.902 3.25977 131.361 3.25977C136.117 3.25977 139.722 5.07109 142.826 8.17628L139.121 12.0579C136.918 9.72909 134.415 8.59046 130.96 8.59046C126.854 8.59046 125.102 10.6605 125.102 13.093C125.102 15.629 126.704 16.8711 132.763 18.734C139.672 20.9077 143.978 23.1848 143.978 29.6539C143.978 36.1749 139.972 40.6257 131.01 40.6257Z" fill="#22314E"/>
</svg>
