<svg width="37" height="36" viewBox="0 0 37 36" fill="none" xmlns="http://www.w3.org/2000/svg">
<path d="M35.9827 9.65305C35.8226 13.1475 33.3748 17.9351 28.6434 24.0115C23.7477 30.3561 19.6045 33.5262 16.2181 33.5262C14.1206 33.5262 12.3431 31.5887 10.8986 27.7179L8.00093 17.0702C6.91971 13.1951 5.76498 11.2619 4.5324 11.2619C4.26426 11.2619 3.32144 11.8241 1.70828 12.9572L0.0129395 10.7775L5.24168 6.09803C7.60737 4.05238 9.38055 2.98414 10.5612 2.8717C13.3724 2.60788 15.0893 4.51514 15.7337 8.64969L17.1869 16.8799C17.9913 20.5387 18.8822 22.3724 19.8467 22.3724C20.5992 22.3724 21.728 21.1874 23.2374 18.826C24.7467 16.4647 25.5511 14.6569 25.6593 13.42C25.8755 11.3743 25.0668 10.3494 23.2374 10.3494C22.3724 10.3494 21.4901 10.5396 20.5776 10.9116C22.3075 5.15954 25.7414 2.36137 30.741 2.52138C34.4517 2.62951 36.1989 5.02114 35.9827 9.70063V9.65305Z" fill="#22314E"/>
</svg>
